G04 #@! TF.GenerationSoftware,KiCad,Pcbnew,(5.1.4-0-10_14)*
G04 #@! TF.CreationDate,2021-03-12T18:16:50+09:00*
G04 #@! TF.ProjectId,PC8001-MEM,50433830-3031-42d4-9d45-4d2e6b696361,rev?*
G04 #@! TF.SameCoordinates,Original*
G04 #@! TF.FileFunction,Legend,Top*
G04 #@! TF.FilePolarity,Positive*
%FSLAX46Y46*%
G04 Gerber Fmt 4.6, Leading zero omitted, Abs format (unit mm)*
G04 Created by KiCad (PCBNEW (5.1.4-0-10_14)) date 2021-03-12 18:16:50*
%MOMM*%
%LPD*%
G04 APERTURE LIST*
%ADD10C,0.150000*%
%ADD11C,0.200000*%
%ADD12C,0.120000*%
G04 APERTURE END LIST*
D10*
X179714285Y-63227380D02*
X179714285Y-62227380D01*
X180095238Y-62227380D01*
X180190476Y-62275000D01*
X180238095Y-62322619D01*
X180285714Y-62417857D01*
X180285714Y-62560714D01*
X180238095Y-62655952D01*
X180190476Y-62703571D01*
X180095238Y-62751190D01*
X179714285Y-62751190D01*
X181285714Y-63132142D02*
X181238095Y-63179761D01*
X181095238Y-63227380D01*
X181000000Y-63227380D01*
X180857142Y-63179761D01*
X180761904Y-63084523D01*
X180714285Y-62989285D01*
X180666666Y-62798809D01*
X180666666Y-62655952D01*
X180714285Y-62465476D01*
X180761904Y-62370238D01*
X180857142Y-62275000D01*
X181000000Y-62227380D01*
X181095238Y-62227380D01*
X181238095Y-62275000D01*
X181285714Y-62322619D01*
X181714285Y-62846428D02*
X182476190Y-62846428D01*
X183095238Y-62655952D02*
X183000000Y-62608333D01*
X182952380Y-62560714D01*
X182904761Y-62465476D01*
X182904761Y-62417857D01*
X182952380Y-62322619D01*
X183000000Y-62275000D01*
X183095238Y-62227380D01*
X183285714Y-62227380D01*
X183380952Y-62275000D01*
X183428571Y-62322619D01*
X183476190Y-62417857D01*
X183476190Y-62465476D01*
X183428571Y-62560714D01*
X183380952Y-62608333D01*
X183285714Y-62655952D01*
X183095238Y-62655952D01*
X183000000Y-62703571D01*
X182952380Y-62751190D01*
X182904761Y-62846428D01*
X182904761Y-63036904D01*
X182952380Y-63132142D01*
X183000000Y-63179761D01*
X183095238Y-63227380D01*
X183285714Y-63227380D01*
X183380952Y-63179761D01*
X183428571Y-63132142D01*
X183476190Y-63036904D01*
X183476190Y-62846428D01*
X183428571Y-62751190D01*
X183380952Y-62703571D01*
X183285714Y-62655952D01*
X184095238Y-62227380D02*
X184190476Y-62227380D01*
X184285714Y-62275000D01*
X184333333Y-62322619D01*
X184380952Y-62417857D01*
X184428571Y-62608333D01*
X184428571Y-62846428D01*
X184380952Y-63036904D01*
X184333333Y-63132142D01*
X184285714Y-63179761D01*
X184190476Y-63227380D01*
X184095238Y-63227380D01*
X184000000Y-63179761D01*
X183952380Y-63132142D01*
X183904761Y-63036904D01*
X183857142Y-62846428D01*
X183857142Y-62608333D01*
X183904761Y-62417857D01*
X183952380Y-62322619D01*
X184000000Y-62275000D01*
X184095238Y-62227380D01*
X185047619Y-62227380D02*
X185142857Y-62227380D01*
X185238095Y-62275000D01*
X185285714Y-62322619D01*
X185333333Y-62417857D01*
X185380952Y-62608333D01*
X185380952Y-62846428D01*
X185333333Y-63036904D01*
X185285714Y-63132142D01*
X185238095Y-63179761D01*
X185142857Y-63227380D01*
X185047619Y-63227380D01*
X184952380Y-63179761D01*
X184904761Y-63132142D01*
X184857142Y-63036904D01*
X184809523Y-62846428D01*
X184809523Y-62608333D01*
X184857142Y-62417857D01*
X184904761Y-62322619D01*
X184952380Y-62275000D01*
X185047619Y-62227380D01*
X186333333Y-63227380D02*
X185761904Y-63227380D01*
X186047619Y-63227380D02*
X186047619Y-62227380D01*
X185952380Y-62370238D01*
X185857142Y-62465476D01*
X185761904Y-62513095D01*
X180404761Y-64782142D02*
X180357142Y-64829761D01*
X180214285Y-64877380D01*
X180119047Y-64877380D01*
X179976190Y-64829761D01*
X179880952Y-64734523D01*
X179833333Y-64639285D01*
X179785714Y-64448809D01*
X179785714Y-64305952D01*
X179833333Y-64115476D01*
X179880952Y-64020238D01*
X179976190Y-63925000D01*
X180119047Y-63877380D01*
X180214285Y-63877380D01*
X180357142Y-63925000D01*
X180404761Y-63972619D01*
X180833333Y-64877380D02*
X180833333Y-63877380D01*
X181214285Y-63877380D01*
X181309523Y-63925000D01*
X181357142Y-63972619D01*
X181404761Y-64067857D01*
X181404761Y-64210714D01*
X181357142Y-64305952D01*
X181309523Y-64353571D01*
X181214285Y-64401190D01*
X180833333Y-64401190D01*
X181833333Y-63877380D02*
X181833333Y-64686904D01*
X181880952Y-64782142D01*
X181928571Y-64829761D01*
X182023809Y-64877380D01*
X182214285Y-64877380D01*
X182309523Y-64829761D01*
X182357142Y-64782142D01*
X182404761Y-64686904D01*
X182404761Y-63877380D01*
X183976190Y-64353571D02*
X184119047Y-64401190D01*
X184166666Y-64448809D01*
X184214285Y-64544047D01*
X184214285Y-64686904D01*
X184166666Y-64782142D01*
X184119047Y-64829761D01*
X184023809Y-64877380D01*
X183642857Y-64877380D01*
X183642857Y-63877380D01*
X183976190Y-63877380D01*
X184071428Y-63925000D01*
X184119047Y-63972619D01*
X184166666Y-64067857D01*
X184166666Y-64163095D01*
X184119047Y-64258333D01*
X184071428Y-64305952D01*
X183976190Y-64353571D01*
X183642857Y-64353571D01*
X184642857Y-63877380D02*
X184642857Y-64686904D01*
X184690476Y-64782142D01*
X184738095Y-64829761D01*
X184833333Y-64877380D01*
X185023809Y-64877380D01*
X185119047Y-64829761D01*
X185166666Y-64782142D01*
X185214285Y-64686904D01*
X185214285Y-63877380D01*
X185642857Y-64829761D02*
X185785714Y-64877380D01*
X186023809Y-64877380D01*
X186119047Y-64829761D01*
X186166666Y-64782142D01*
X186214285Y-64686904D01*
X186214285Y-64591666D01*
X186166666Y-64496428D01*
X186119047Y-64448809D01*
X186023809Y-64401190D01*
X185833333Y-64353571D01*
X185738095Y-64305952D01*
X185690476Y-64258333D01*
X185642857Y-64163095D01*
X185642857Y-64067857D01*
X185690476Y-63972619D01*
X185738095Y-63925000D01*
X185833333Y-63877380D01*
X186071428Y-63877380D01*
X186214285Y-63925000D01*
X105790476Y-115861904D02*
X105790476Y-115061904D01*
X106247619Y-115861904D02*
X105904761Y-115404761D01*
X106247619Y-115061904D02*
X105790476Y-115519047D01*
X111809523Y-106633333D02*
X112190476Y-106633333D01*
X111733333Y-106861904D02*
X112000000Y-106061904D01*
X112266666Y-106861904D01*
X111809523Y-115633333D02*
X112190476Y-115633333D01*
X111733333Y-115861904D02*
X112000000Y-115061904D01*
X112266666Y-115861904D01*
X103809523Y-115633333D02*
X104190476Y-115633333D01*
X103733333Y-115861904D02*
X104000000Y-115061904D01*
X104266666Y-115861904D01*
X103809523Y-106633333D02*
X104190476Y-106633333D01*
X103733333Y-106861904D02*
X104000000Y-106061904D01*
X104266666Y-106861904D01*
X105790476Y-106861904D02*
X105790476Y-106061904D01*
X106247619Y-106861904D02*
X105904761Y-106404761D01*
X106247619Y-106061904D02*
X105790476Y-106519047D01*
X97790476Y-115861904D02*
X97790476Y-115061904D01*
X98247619Y-115861904D02*
X97904761Y-115404761D01*
X98247619Y-115061904D02*
X97790476Y-115519047D01*
X97790476Y-106861904D02*
X97790476Y-106061904D01*
X98247619Y-106861904D02*
X97904761Y-106404761D01*
X98247619Y-106061904D02*
X97790476Y-106519047D01*
X105872619Y-84202380D02*
X105063095Y-84202380D01*
X104967857Y-84250000D01*
X104920238Y-84297619D01*
X104872619Y-84392857D01*
X104872619Y-84583333D01*
X104920238Y-84678571D01*
X104967857Y-84726190D01*
X105063095Y-84773809D01*
X105872619Y-84773809D01*
X104872619Y-85726190D02*
X104872619Y-85250000D01*
X105872619Y-85250000D01*
X104872619Y-86059523D02*
X105872619Y-86059523D01*
X104872619Y-86630952D01*
X105872619Y-86630952D01*
X105777380Y-87059523D02*
X105825000Y-87107142D01*
X105872619Y-87202380D01*
X105872619Y-87440476D01*
X105825000Y-87535714D01*
X105777380Y-87583333D01*
X105682142Y-87630952D01*
X105586904Y-87630952D01*
X105444047Y-87583333D01*
X104872619Y-87011904D01*
X104872619Y-87630952D01*
X105872619Y-88250000D02*
X105872619Y-88345238D01*
X105825000Y-88440476D01*
X105777380Y-88488095D01*
X105682142Y-88535714D01*
X105491666Y-88583333D01*
X105253571Y-88583333D01*
X105063095Y-88535714D01*
X104967857Y-88488095D01*
X104920238Y-88440476D01*
X104872619Y-88345238D01*
X104872619Y-88250000D01*
X104920238Y-88154761D01*
X104967857Y-88107142D01*
X105063095Y-88059523D01*
X105253571Y-88011904D01*
X105491666Y-88011904D01*
X105682142Y-88059523D01*
X105777380Y-88107142D01*
X105825000Y-88154761D01*
X105872619Y-88250000D01*
X105872619Y-89202380D02*
X105872619Y-89297619D01*
X105825000Y-89392857D01*
X105777380Y-89440476D01*
X105682142Y-89488095D01*
X105491666Y-89535714D01*
X105253571Y-89535714D01*
X105063095Y-89488095D01*
X104967857Y-89440476D01*
X104920238Y-89392857D01*
X104872619Y-89297619D01*
X104872619Y-89202380D01*
X104920238Y-89107142D01*
X104967857Y-89059523D01*
X105063095Y-89011904D01*
X105253571Y-88964285D01*
X105491666Y-88964285D01*
X105682142Y-89011904D01*
X105777380Y-89059523D01*
X105825000Y-89107142D01*
X105872619Y-89202380D01*
X105539285Y-90392857D02*
X104872619Y-90392857D01*
X105920238Y-90154761D02*
X105205952Y-89916666D01*
X105205952Y-90535714D01*
X105158333Y-90869047D02*
X105158333Y-91345238D01*
X104872619Y-90773809D02*
X105872619Y-91107142D01*
X104872619Y-91440476D01*
X102841666Y-84654761D02*
X102889285Y-84607142D01*
X103032142Y-84511904D01*
X103127380Y-84464285D01*
X103270238Y-84416666D01*
X103508333Y-84369047D01*
X103698809Y-84369047D01*
X103936904Y-84416666D01*
X104079761Y-84464285D01*
X104175000Y-84511904D01*
X104317857Y-84607142D01*
X104365476Y-84654761D01*
X104222619Y-84892857D02*
X104222619Y-85464285D01*
X103222619Y-85178571D02*
X104222619Y-85178571D01*
X103222619Y-85797619D02*
X103889285Y-85797619D01*
X103698809Y-85797619D02*
X103794047Y-85845238D01*
X103841666Y-85892857D01*
X103889285Y-85988095D01*
X103889285Y-86083333D01*
X103508333Y-87130952D02*
X103508333Y-87607142D01*
X103222619Y-87035714D02*
X104222619Y-87369047D01*
X103222619Y-87702380D01*
X103222619Y-88035714D02*
X103889285Y-88035714D01*
X103698809Y-88035714D02*
X103794047Y-88083333D01*
X103841666Y-88130952D01*
X103889285Y-88226190D01*
X103889285Y-88321428D01*
X103222619Y-88654761D02*
X103889285Y-88654761D01*
X103698809Y-88654761D02*
X103794047Y-88702380D01*
X103841666Y-88750000D01*
X103889285Y-88845238D01*
X103889285Y-88940476D01*
X103222619Y-89702380D02*
X103746428Y-89702380D01*
X103841666Y-89654761D01*
X103889285Y-89559523D01*
X103889285Y-89369047D01*
X103841666Y-89273809D01*
X103270238Y-89702380D02*
X103222619Y-89607142D01*
X103222619Y-89369047D01*
X103270238Y-89273809D01*
X103365476Y-89226190D01*
X103460714Y-89226190D01*
X103555952Y-89273809D01*
X103603571Y-89369047D01*
X103603571Y-89607142D01*
X103651190Y-89702380D01*
X103889285Y-90083333D02*
X103222619Y-90321428D01*
X103889285Y-90559523D02*
X103222619Y-90321428D01*
X102984523Y-90226190D01*
X102936904Y-90178571D01*
X102889285Y-90083333D01*
X102841666Y-90845238D02*
X102889285Y-90892857D01*
X103032142Y-90988095D01*
X103127380Y-91035714D01*
X103270238Y-91083333D01*
X103508333Y-91130952D01*
X103698809Y-91130952D01*
X103936904Y-91083333D01*
X104079761Y-91035714D01*
X104175000Y-90988095D01*
X104317857Y-90892857D01*
X104365476Y-90845238D01*
X162809523Y-114627380D02*
X162619047Y-114627380D01*
X162523809Y-114675000D01*
X162476190Y-114722619D01*
X162380952Y-114865476D01*
X162333333Y-115055952D01*
X162333333Y-115436904D01*
X162380952Y-115532142D01*
X162428571Y-115579761D01*
X162523809Y-115627380D01*
X162714285Y-115627380D01*
X162809523Y-115579761D01*
X162857142Y-115532142D01*
X162904761Y-115436904D01*
X162904761Y-115198809D01*
X162857142Y-115103571D01*
X162809523Y-115055952D01*
X162714285Y-115008333D01*
X162523809Y-115008333D01*
X162428571Y-115055952D01*
X162380952Y-115103571D01*
X162333333Y-115198809D01*
X163285714Y-114722619D02*
X163333333Y-114675000D01*
X163428571Y-114627380D01*
X163666666Y-114627380D01*
X163761904Y-114675000D01*
X163809523Y-114722619D01*
X163857142Y-114817857D01*
X163857142Y-114913095D01*
X163809523Y-115055952D01*
X163238095Y-115627380D01*
X163857142Y-115627380D01*
X164428571Y-115055952D02*
X164333333Y-115008333D01*
X164285714Y-114960714D01*
X164238095Y-114865476D01*
X164238095Y-114817857D01*
X164285714Y-114722619D01*
X164333333Y-114675000D01*
X164428571Y-114627380D01*
X164619047Y-114627380D01*
X164714285Y-114675000D01*
X164761904Y-114722619D01*
X164809523Y-114817857D01*
X164809523Y-114865476D01*
X164761904Y-114960714D01*
X164714285Y-115008333D01*
X164619047Y-115055952D01*
X164428571Y-115055952D01*
X164333333Y-115103571D01*
X164285714Y-115151190D01*
X164238095Y-115246428D01*
X164238095Y-115436904D01*
X164285714Y-115532142D01*
X164333333Y-115579761D01*
X164428571Y-115627380D01*
X164619047Y-115627380D01*
X164714285Y-115579761D01*
X164761904Y-115532142D01*
X164809523Y-115436904D01*
X164809523Y-115246428D01*
X164761904Y-115151190D01*
X164714285Y-115103571D01*
X164619047Y-115055952D01*
X165761904Y-115627380D02*
X165190476Y-115627380D01*
X165476190Y-115627380D02*
X165476190Y-114627380D01*
X165380952Y-114770238D01*
X165285714Y-114865476D01*
X165190476Y-114913095D01*
X166142857Y-114722619D02*
X166190476Y-114675000D01*
X166285714Y-114627380D01*
X166523809Y-114627380D01*
X166619047Y-114675000D01*
X166666666Y-114722619D01*
X166714285Y-114817857D01*
X166714285Y-114913095D01*
X166666666Y-115055952D01*
X166095238Y-115627380D01*
X166714285Y-115627380D01*
X167285714Y-115055952D02*
X167190476Y-115008333D01*
X167142857Y-114960714D01*
X167095238Y-114865476D01*
X167095238Y-114817857D01*
X167142857Y-114722619D01*
X167190476Y-114675000D01*
X167285714Y-114627380D01*
X167476190Y-114627380D01*
X167571428Y-114675000D01*
X167619047Y-114722619D01*
X167666666Y-114817857D01*
X167666666Y-114865476D01*
X167619047Y-114960714D01*
X167571428Y-115008333D01*
X167476190Y-115055952D01*
X167285714Y-115055952D01*
X167190476Y-115103571D01*
X167142857Y-115151190D01*
X167095238Y-115246428D01*
X167095238Y-115436904D01*
X167142857Y-115532142D01*
X167190476Y-115579761D01*
X167285714Y-115627380D01*
X167476190Y-115627380D01*
X167571428Y-115579761D01*
X167619047Y-115532142D01*
X167666666Y-115436904D01*
X167666666Y-115246428D01*
X167619047Y-115151190D01*
X167571428Y-115103571D01*
X167476190Y-115055952D01*
X160476190Y-117658333D02*
X160428571Y-117610714D01*
X160333333Y-117467857D01*
X160285714Y-117372619D01*
X160238095Y-117229761D01*
X160190476Y-116991666D01*
X160190476Y-116801190D01*
X160238095Y-116563095D01*
X160285714Y-116420238D01*
X160333333Y-116325000D01*
X160428571Y-116182142D01*
X160476190Y-116134523D01*
X161380952Y-117277380D02*
X160809523Y-117277380D01*
X161095238Y-117277380D02*
X161095238Y-116277380D01*
X161000000Y-116420238D01*
X160904761Y-116515476D01*
X160809523Y-116563095D01*
X161809523Y-117277380D02*
X161809523Y-116277380D01*
X162142857Y-116991666D01*
X162476190Y-116277380D01*
X162476190Y-117277380D01*
X162952380Y-117277380D02*
X162952380Y-116277380D01*
X162952380Y-116658333D02*
X163047619Y-116610714D01*
X163238095Y-116610714D01*
X163333333Y-116658333D01*
X163380952Y-116705952D01*
X163428571Y-116801190D01*
X163428571Y-117086904D01*
X163380952Y-117182142D01*
X163333333Y-117229761D01*
X163238095Y-117277380D01*
X163047619Y-117277380D01*
X162952380Y-117229761D01*
X163857142Y-117277380D02*
X163857142Y-116610714D01*
X163857142Y-116277380D02*
X163809523Y-116325000D01*
X163857142Y-116372619D01*
X163904761Y-116325000D01*
X163857142Y-116277380D01*
X163857142Y-116372619D01*
X164190476Y-116610714D02*
X164571428Y-116610714D01*
X164333333Y-116277380D02*
X164333333Y-117134523D01*
X164380952Y-117229761D01*
X164476190Y-117277380D01*
X164571428Y-117277380D01*
X165619047Y-117229761D02*
X165761904Y-117277380D01*
X166000000Y-117277380D01*
X166095238Y-117229761D01*
X166142857Y-117182142D01*
X166190476Y-117086904D01*
X166190476Y-116991666D01*
X166142857Y-116896428D01*
X166095238Y-116848809D01*
X166000000Y-116801190D01*
X165809523Y-116753571D01*
X165714285Y-116705952D01*
X165666666Y-116658333D01*
X165619047Y-116563095D01*
X165619047Y-116467857D01*
X165666666Y-116372619D01*
X165714285Y-116325000D01*
X165809523Y-116277380D01*
X166047619Y-116277380D01*
X166190476Y-116325000D01*
X167190476Y-117277380D02*
X166857142Y-116801190D01*
X166619047Y-117277380D02*
X166619047Y-116277380D01*
X167000000Y-116277380D01*
X167095238Y-116325000D01*
X167142857Y-116372619D01*
X167190476Y-116467857D01*
X167190476Y-116610714D01*
X167142857Y-116705952D01*
X167095238Y-116753571D01*
X167000000Y-116801190D01*
X166619047Y-116801190D01*
X167571428Y-116991666D02*
X168047619Y-116991666D01*
X167476190Y-117277380D02*
X167809523Y-116277380D01*
X168142857Y-117277380D01*
X168476190Y-117277380D02*
X168476190Y-116277380D01*
X168809523Y-116991666D01*
X169142857Y-116277380D01*
X169142857Y-117277380D01*
X169523809Y-117658333D02*
X169571428Y-117610714D01*
X169666666Y-117467857D01*
X169714285Y-117372619D01*
X169761904Y-117229761D01*
X169809523Y-116991666D01*
X169809523Y-116801190D01*
X169761904Y-116563095D01*
X169714285Y-116420238D01*
X169666666Y-116325000D01*
X169571428Y-116182142D01*
X169523809Y-116134523D01*
X179880952Y-98702380D02*
X180547619Y-98702380D01*
X180119047Y-99702380D01*
X181357142Y-99035714D02*
X181357142Y-99702380D01*
X181119047Y-98654761D02*
X180880952Y-99369047D01*
X181500000Y-99369047D01*
X182357142Y-99702380D02*
X181880952Y-99702380D01*
X181880952Y-98702380D01*
X182642857Y-99654761D02*
X182785714Y-99702380D01*
X183023809Y-99702380D01*
X183119047Y-99654761D01*
X183166666Y-99607142D01*
X183214285Y-99511904D01*
X183214285Y-99416666D01*
X183166666Y-99321428D01*
X183119047Y-99273809D01*
X183023809Y-99226190D01*
X182833333Y-99178571D01*
X182738095Y-99130952D01*
X182690476Y-99083333D01*
X182642857Y-98988095D01*
X182642857Y-98892857D01*
X182690476Y-98797619D01*
X182738095Y-98750000D01*
X182833333Y-98702380D01*
X183071428Y-98702380D01*
X183214285Y-98750000D01*
X184166666Y-99702380D02*
X183595238Y-99702380D01*
X183880952Y-99702380D02*
X183880952Y-98702380D01*
X183785714Y-98845238D01*
X183690476Y-98940476D01*
X183595238Y-98988095D01*
X184500000Y-98702380D02*
X185166666Y-98702380D01*
X184738095Y-99702380D01*
X186023809Y-98702380D02*
X185547619Y-98702380D01*
X185500000Y-99178571D01*
X185547619Y-99130952D01*
X185642857Y-99083333D01*
X185880952Y-99083333D01*
X185976190Y-99130952D01*
X186023809Y-99178571D01*
X186071428Y-99273809D01*
X186071428Y-99511904D01*
X186023809Y-99607142D01*
X185976190Y-99654761D01*
X185880952Y-99702380D01*
X185642857Y-99702380D01*
X185547619Y-99654761D01*
X185500000Y-99607142D01*
X189047619Y-77357142D02*
X189047619Y-78023809D01*
X188047619Y-77595238D01*
X188714285Y-78833333D02*
X188047619Y-78833333D01*
X189095238Y-78595238D02*
X188380952Y-78357142D01*
X188380952Y-78976190D01*
X188047619Y-79833333D02*
X188047619Y-79357142D01*
X189047619Y-79357142D01*
X188095238Y-80119047D02*
X188047619Y-80261904D01*
X188047619Y-80500000D01*
X188095238Y-80595238D01*
X188142857Y-80642857D01*
X188238095Y-80690476D01*
X188333333Y-80690476D01*
X188428571Y-80642857D01*
X188476190Y-80595238D01*
X188523809Y-80500000D01*
X188571428Y-80309523D01*
X188619047Y-80214285D01*
X188666666Y-80166666D01*
X188761904Y-80119047D01*
X188857142Y-80119047D01*
X188952380Y-80166666D01*
X189000000Y-80214285D01*
X189047619Y-80309523D01*
X189047619Y-80547619D01*
X189000000Y-80690476D01*
X189047619Y-81023809D02*
X189047619Y-81642857D01*
X188666666Y-81309523D01*
X188666666Y-81452380D01*
X188619047Y-81547619D01*
X188571428Y-81595238D01*
X188476190Y-81642857D01*
X188238095Y-81642857D01*
X188142857Y-81595238D01*
X188095238Y-81547619D01*
X188047619Y-81452380D01*
X188047619Y-81166666D01*
X188095238Y-81071428D01*
X188142857Y-81023809D01*
X188952380Y-82023809D02*
X189000000Y-82071428D01*
X189047619Y-82166666D01*
X189047619Y-82404761D01*
X189000000Y-82500000D01*
X188952380Y-82547619D01*
X188857142Y-82595238D01*
X188761904Y-82595238D01*
X188619047Y-82547619D01*
X188047619Y-81976190D01*
X188047619Y-82595238D01*
X176547619Y-77857142D02*
X176547619Y-78523809D01*
X175547619Y-78095238D01*
X176214285Y-79333333D02*
X175547619Y-79333333D01*
X176595238Y-79095238D02*
X175880952Y-78857142D01*
X175880952Y-79476190D01*
X175547619Y-80333333D02*
X175547619Y-79857142D01*
X176547619Y-79857142D01*
X175595238Y-80619047D02*
X175547619Y-80761904D01*
X175547619Y-81000000D01*
X175595238Y-81095238D01*
X175642857Y-81142857D01*
X175738095Y-81190476D01*
X175833333Y-81190476D01*
X175928571Y-81142857D01*
X175976190Y-81095238D01*
X176023809Y-81000000D01*
X176071428Y-80809523D01*
X176119047Y-80714285D01*
X176166666Y-80666666D01*
X176261904Y-80619047D01*
X176357142Y-80619047D01*
X176452380Y-80666666D01*
X176500000Y-80714285D01*
X176547619Y-80809523D01*
X176547619Y-81047619D01*
X176500000Y-81190476D01*
X176547619Y-81523809D02*
X176547619Y-82142857D01*
X176166666Y-81809523D01*
X176166666Y-81952380D01*
X176119047Y-82047619D01*
X176071428Y-82095238D01*
X175976190Y-82142857D01*
X175738095Y-82142857D01*
X175642857Y-82095238D01*
X175595238Y-82047619D01*
X175547619Y-81952380D01*
X175547619Y-81666666D01*
X175595238Y-81571428D01*
X175642857Y-81523809D01*
X176452380Y-82523809D02*
X176500000Y-82571428D01*
X176547619Y-82666666D01*
X176547619Y-82904761D01*
X176500000Y-83000000D01*
X176452380Y-83047619D01*
X176357142Y-83095238D01*
X176261904Y-83095238D01*
X176119047Y-83047619D01*
X175547619Y-82476190D01*
X175547619Y-83095238D01*
X163547619Y-78130952D02*
X163547619Y-78797619D01*
X162547619Y-78369047D01*
X163214285Y-79607142D02*
X162547619Y-79607142D01*
X163595238Y-79369047D02*
X162880952Y-79130952D01*
X162880952Y-79750000D01*
X162547619Y-80607142D02*
X162547619Y-80130952D01*
X163547619Y-80130952D01*
X162595238Y-80892857D02*
X162547619Y-81035714D01*
X162547619Y-81273809D01*
X162595238Y-81369047D01*
X162642857Y-81416666D01*
X162738095Y-81464285D01*
X162833333Y-81464285D01*
X162928571Y-81416666D01*
X162976190Y-81369047D01*
X163023809Y-81273809D01*
X163071428Y-81083333D01*
X163119047Y-80988095D01*
X163166666Y-80940476D01*
X163261904Y-80892857D01*
X163357142Y-80892857D01*
X163452380Y-80940476D01*
X163500000Y-80988095D01*
X163547619Y-81083333D01*
X163547619Y-81321428D01*
X163500000Y-81464285D01*
X162547619Y-82416666D02*
X162547619Y-81845238D01*
X162547619Y-82130952D02*
X163547619Y-82130952D01*
X163404761Y-82035714D01*
X163309523Y-81940476D01*
X163261904Y-81845238D01*
X163547619Y-82750000D02*
X163547619Y-83369047D01*
X163166666Y-83035714D01*
X163166666Y-83178571D01*
X163119047Y-83273809D01*
X163071428Y-83321428D01*
X162976190Y-83369047D01*
X162738095Y-83369047D01*
X162642857Y-83321428D01*
X162595238Y-83273809D01*
X162547619Y-83178571D01*
X162547619Y-82892857D01*
X162595238Y-82797619D01*
X162642857Y-82750000D01*
X163119047Y-83940476D02*
X163166666Y-83845238D01*
X163214285Y-83797619D01*
X163309523Y-83750000D01*
X163357142Y-83750000D01*
X163452380Y-83797619D01*
X163500000Y-83845238D01*
X163547619Y-83940476D01*
X163547619Y-84130952D01*
X163500000Y-84226190D01*
X163452380Y-84273809D01*
X163357142Y-84321428D01*
X163309523Y-84321428D01*
X163214285Y-84273809D01*
X163166666Y-84226190D01*
X163119047Y-84130952D01*
X163119047Y-83940476D01*
X163071428Y-83845238D01*
X163023809Y-83797619D01*
X162928571Y-83750000D01*
X162738095Y-83750000D01*
X162642857Y-83797619D01*
X162595238Y-83845238D01*
X162547619Y-83940476D01*
X162547619Y-84130952D01*
X162595238Y-84226190D01*
X162642857Y-84273809D01*
X162738095Y-84321428D01*
X162928571Y-84321428D01*
X163023809Y-84273809D01*
X163071428Y-84226190D01*
X163119047Y-84130952D01*
X150047619Y-78380952D02*
X150047619Y-79047619D01*
X149047619Y-78619047D01*
X149714285Y-79857142D02*
X149047619Y-79857142D01*
X150095238Y-79619047D02*
X149380952Y-79380952D01*
X149380952Y-80000000D01*
X149047619Y-80857142D02*
X149047619Y-80380952D01*
X150047619Y-80380952D01*
X149095238Y-81142857D02*
X149047619Y-81285714D01*
X149047619Y-81523809D01*
X149095238Y-81619047D01*
X149142857Y-81666666D01*
X149238095Y-81714285D01*
X149333333Y-81714285D01*
X149428571Y-81666666D01*
X149476190Y-81619047D01*
X149523809Y-81523809D01*
X149571428Y-81333333D01*
X149619047Y-81238095D01*
X149666666Y-81190476D01*
X149761904Y-81142857D01*
X149857142Y-81142857D01*
X149952380Y-81190476D01*
X150000000Y-81238095D01*
X150047619Y-81333333D01*
X150047619Y-81571428D01*
X150000000Y-81714285D01*
X149047619Y-82666666D02*
X149047619Y-82095238D01*
X149047619Y-82380952D02*
X150047619Y-82380952D01*
X149904761Y-82285714D01*
X149809523Y-82190476D01*
X149761904Y-82095238D01*
X150047619Y-83000000D02*
X150047619Y-83619047D01*
X149666666Y-83285714D01*
X149666666Y-83428571D01*
X149619047Y-83523809D01*
X149571428Y-83571428D01*
X149476190Y-83619047D01*
X149238095Y-83619047D01*
X149142857Y-83571428D01*
X149095238Y-83523809D01*
X149047619Y-83428571D01*
X149047619Y-83142857D01*
X149095238Y-83047619D01*
X149142857Y-83000000D01*
X149619047Y-84190476D02*
X149666666Y-84095238D01*
X149714285Y-84047619D01*
X149809523Y-84000000D01*
X149857142Y-84000000D01*
X149952380Y-84047619D01*
X150000000Y-84095238D01*
X150047619Y-84190476D01*
X150047619Y-84380952D01*
X150000000Y-84476190D01*
X149952380Y-84523809D01*
X149857142Y-84571428D01*
X149809523Y-84571428D01*
X149714285Y-84523809D01*
X149666666Y-84476190D01*
X149619047Y-84380952D01*
X149619047Y-84190476D01*
X149571428Y-84095238D01*
X149523809Y-84047619D01*
X149428571Y-84000000D01*
X149238095Y-84000000D01*
X149142857Y-84047619D01*
X149095238Y-84095238D01*
X149047619Y-84190476D01*
X149047619Y-84380952D01*
X149095238Y-84476190D01*
X149142857Y-84523809D01*
X149238095Y-84571428D01*
X149428571Y-84571428D01*
X149523809Y-84523809D01*
X149571428Y-84476190D01*
X149619047Y-84380952D01*
X123880952Y-103202380D02*
X124547619Y-103202380D01*
X124119047Y-104202380D01*
X125357142Y-103535714D02*
X125357142Y-104202380D01*
X125119047Y-103154761D02*
X124880952Y-103869047D01*
X125500000Y-103869047D01*
X126357142Y-104202380D02*
X125880952Y-104202380D01*
X125880952Y-103202380D01*
X126642857Y-104154761D02*
X126785714Y-104202380D01*
X127023809Y-104202380D01*
X127119047Y-104154761D01*
X127166666Y-104107142D01*
X127214285Y-104011904D01*
X127214285Y-103916666D01*
X127166666Y-103821428D01*
X127119047Y-103773809D01*
X127023809Y-103726190D01*
X126833333Y-103678571D01*
X126738095Y-103630952D01*
X126690476Y-103583333D01*
X126642857Y-103488095D01*
X126642857Y-103392857D01*
X126690476Y-103297619D01*
X126738095Y-103250000D01*
X126833333Y-103202380D01*
X127071428Y-103202380D01*
X127214285Y-103250000D01*
X127595238Y-103297619D02*
X127642857Y-103250000D01*
X127738095Y-103202380D01*
X127976190Y-103202380D01*
X128071428Y-103250000D01*
X128119047Y-103297619D01*
X128166666Y-103392857D01*
X128166666Y-103488095D01*
X128119047Y-103630952D01*
X127547619Y-104202380D01*
X128166666Y-104202380D01*
X128500000Y-103202380D02*
X129166666Y-103202380D01*
X128738095Y-104202380D01*
X129452380Y-103202380D02*
X130071428Y-103202380D01*
X129738095Y-103583333D01*
X129880952Y-103583333D01*
X129976190Y-103630952D01*
X130023809Y-103678571D01*
X130071428Y-103773809D01*
X130071428Y-104011904D01*
X130023809Y-104107142D01*
X129976190Y-104154761D01*
X129880952Y-104202380D01*
X129595238Y-104202380D01*
X129500000Y-104154761D01*
X129452380Y-104107142D01*
X123880952Y-89452380D02*
X124547619Y-89452380D01*
X124119047Y-90452380D01*
X125357142Y-89785714D02*
X125357142Y-90452380D01*
X125119047Y-89404761D02*
X124880952Y-90119047D01*
X125500000Y-90119047D01*
X126357142Y-90452380D02*
X125880952Y-90452380D01*
X125880952Y-89452380D01*
X126642857Y-90404761D02*
X126785714Y-90452380D01*
X127023809Y-90452380D01*
X127119047Y-90404761D01*
X127166666Y-90357142D01*
X127214285Y-90261904D01*
X127214285Y-90166666D01*
X127166666Y-90071428D01*
X127119047Y-90023809D01*
X127023809Y-89976190D01*
X126833333Y-89928571D01*
X126738095Y-89880952D01*
X126690476Y-89833333D01*
X126642857Y-89738095D01*
X126642857Y-89642857D01*
X126690476Y-89547619D01*
X126738095Y-89500000D01*
X126833333Y-89452380D01*
X127071428Y-89452380D01*
X127214285Y-89500000D01*
X128119047Y-89452380D02*
X127642857Y-89452380D01*
X127595238Y-89928571D01*
X127642857Y-89880952D01*
X127738095Y-89833333D01*
X127976190Y-89833333D01*
X128071428Y-89880952D01*
X128119047Y-89928571D01*
X128166666Y-90023809D01*
X128166666Y-90261904D01*
X128119047Y-90357142D01*
X128071428Y-90404761D01*
X127976190Y-90452380D01*
X127738095Y-90452380D01*
X127642857Y-90404761D01*
X127595238Y-90357142D01*
X129023809Y-89785714D02*
X129023809Y-90452380D01*
X128785714Y-89404761D02*
X128547619Y-90119047D01*
X129166666Y-90119047D01*
X130071428Y-90452380D02*
X129500000Y-90452380D01*
X129785714Y-90452380D02*
X129785714Y-89452380D01*
X129690476Y-89595238D01*
X129595238Y-89690476D01*
X129500000Y-89738095D01*
X124130952Y-76202380D02*
X124797619Y-76202380D01*
X124369047Y-77202380D01*
X125607142Y-76535714D02*
X125607142Y-77202380D01*
X125369047Y-76154761D02*
X125130952Y-76869047D01*
X125750000Y-76869047D01*
X126607142Y-77202380D02*
X126130952Y-77202380D01*
X126130952Y-76202380D01*
X126892857Y-77154761D02*
X127035714Y-77202380D01*
X127273809Y-77202380D01*
X127369047Y-77154761D01*
X127416666Y-77107142D01*
X127464285Y-77011904D01*
X127464285Y-76916666D01*
X127416666Y-76821428D01*
X127369047Y-76773809D01*
X127273809Y-76726190D01*
X127083333Y-76678571D01*
X126988095Y-76630952D01*
X126940476Y-76583333D01*
X126892857Y-76488095D01*
X126892857Y-76392857D01*
X126940476Y-76297619D01*
X126988095Y-76250000D01*
X127083333Y-76202380D01*
X127321428Y-76202380D01*
X127464285Y-76250000D01*
X128369047Y-76202380D02*
X127892857Y-76202380D01*
X127845238Y-76678571D01*
X127892857Y-76630952D01*
X127988095Y-76583333D01*
X128226190Y-76583333D01*
X128321428Y-76630952D01*
X128369047Y-76678571D01*
X128416666Y-76773809D01*
X128416666Y-77011904D01*
X128369047Y-77107142D01*
X128321428Y-77154761D01*
X128226190Y-77202380D01*
X127988095Y-77202380D01*
X127892857Y-77154761D01*
X127845238Y-77107142D01*
X129273809Y-76535714D02*
X129273809Y-77202380D01*
X129035714Y-76154761D02*
X128797619Y-76869047D01*
X129416666Y-76869047D01*
X130321428Y-77202380D02*
X129750000Y-77202380D01*
X130035714Y-77202380D02*
X130035714Y-76202380D01*
X129940476Y-76345238D01*
X129845238Y-76440476D01*
X129750000Y-76488095D01*
D11*
X144687142Y-97228571D02*
X144687142Y-95728571D01*
X145258571Y-95728571D01*
X145401428Y-95800000D01*
X145472857Y-95871428D01*
X145544285Y-96014285D01*
X145544285Y-96228571D01*
X145472857Y-96371428D01*
X145401428Y-96442857D01*
X145258571Y-96514285D01*
X144687142Y-96514285D01*
X147044285Y-97085714D02*
X146972857Y-97157142D01*
X146758571Y-97228571D01*
X146615714Y-97228571D01*
X146401428Y-97157142D01*
X146258571Y-97014285D01*
X146187142Y-96871428D01*
X146115714Y-96585714D01*
X146115714Y-96371428D01*
X146187142Y-96085714D01*
X146258571Y-95942857D01*
X146401428Y-95800000D01*
X146615714Y-95728571D01*
X146758571Y-95728571D01*
X146972857Y-95800000D01*
X147044285Y-95871428D01*
X147687142Y-96657142D02*
X148830000Y-96657142D01*
X149758571Y-96371428D02*
X149615714Y-96300000D01*
X149544285Y-96228571D01*
X149472857Y-96085714D01*
X149472857Y-96014285D01*
X149544285Y-95871428D01*
X149615714Y-95800000D01*
X149758571Y-95728571D01*
X150044285Y-95728571D01*
X150187142Y-95800000D01*
X150258571Y-95871428D01*
X150330000Y-96014285D01*
X150330000Y-96085714D01*
X150258571Y-96228571D01*
X150187142Y-96300000D01*
X150044285Y-96371428D01*
X149758571Y-96371428D01*
X149615714Y-96442857D01*
X149544285Y-96514285D01*
X149472857Y-96657142D01*
X149472857Y-96942857D01*
X149544285Y-97085714D01*
X149615714Y-97157142D01*
X149758571Y-97228571D01*
X150044285Y-97228571D01*
X150187142Y-97157142D01*
X150258571Y-97085714D01*
X150330000Y-96942857D01*
X150330000Y-96657142D01*
X150258571Y-96514285D01*
X150187142Y-96442857D01*
X150044285Y-96371428D01*
X151258571Y-95728571D02*
X151401428Y-95728571D01*
X151544285Y-95800000D01*
X151615714Y-95871428D01*
X151687142Y-96014285D01*
X151758571Y-96300000D01*
X151758571Y-96657142D01*
X151687142Y-96942857D01*
X151615714Y-97085714D01*
X151544285Y-97157142D01*
X151401428Y-97228571D01*
X151258571Y-97228571D01*
X151115714Y-97157142D01*
X151044285Y-97085714D01*
X150972857Y-96942857D01*
X150901428Y-96657142D01*
X150901428Y-96300000D01*
X150972857Y-96014285D01*
X151044285Y-95871428D01*
X151115714Y-95800000D01*
X151258571Y-95728571D01*
X152687142Y-95728571D02*
X152830000Y-95728571D01*
X152972857Y-95800000D01*
X153044285Y-95871428D01*
X153115714Y-96014285D01*
X153187142Y-96300000D01*
X153187142Y-96657142D01*
X153115714Y-96942857D01*
X153044285Y-97085714D01*
X152972857Y-97157142D01*
X152830000Y-97228571D01*
X152687142Y-97228571D01*
X152544285Y-97157142D01*
X152472857Y-97085714D01*
X152401428Y-96942857D01*
X152330000Y-96657142D01*
X152330000Y-96300000D01*
X152401428Y-96014285D01*
X152472857Y-95871428D01*
X152544285Y-95800000D01*
X152687142Y-95728571D01*
X154615714Y-97228571D02*
X153758571Y-97228571D01*
X154187142Y-97228571D02*
X154187142Y-95728571D01*
X154044285Y-95942857D01*
X153901428Y-96085714D01*
X153758571Y-96157142D01*
X157187142Y-97228571D02*
X156330000Y-97228571D01*
X156758571Y-97228571D02*
X156758571Y-95728571D01*
X156615714Y-95942857D01*
X156472857Y-96085714D01*
X156330000Y-96157142D01*
X157758571Y-95871428D02*
X157830000Y-95800000D01*
X157972857Y-95728571D01*
X158330000Y-95728571D01*
X158472857Y-95800000D01*
X158544285Y-95871428D01*
X158615714Y-96014285D01*
X158615714Y-96157142D01*
X158544285Y-96371428D01*
X157687142Y-97228571D01*
X158615714Y-97228571D01*
X159472857Y-96371428D02*
X159330000Y-96300000D01*
X159258571Y-96228571D01*
X159187142Y-96085714D01*
X159187142Y-96014285D01*
X159258571Y-95871428D01*
X159330000Y-95800000D01*
X159472857Y-95728571D01*
X159758571Y-95728571D01*
X159901428Y-95800000D01*
X159972857Y-95871428D01*
X160044285Y-96014285D01*
X160044285Y-96085714D01*
X159972857Y-96228571D01*
X159901428Y-96300000D01*
X159758571Y-96371428D01*
X159472857Y-96371428D01*
X159330000Y-96442857D01*
X159258571Y-96514285D01*
X159187142Y-96657142D01*
X159187142Y-96942857D01*
X159258571Y-97085714D01*
X159330000Y-97157142D01*
X159472857Y-97228571D01*
X159758571Y-97228571D01*
X159901428Y-97157142D01*
X159972857Y-97085714D01*
X160044285Y-96942857D01*
X160044285Y-96657142D01*
X159972857Y-96514285D01*
X159901428Y-96442857D01*
X159758571Y-96371428D01*
X160687142Y-97228571D02*
X160687142Y-95728571D01*
X160830000Y-96657142D02*
X161258571Y-97228571D01*
X161258571Y-96228571D02*
X160687142Y-96800000D01*
X162401428Y-96442857D02*
X162615714Y-96514285D01*
X162687142Y-96585714D01*
X162758571Y-96728571D01*
X162758571Y-96942857D01*
X162687142Y-97085714D01*
X162615714Y-97157142D01*
X162472857Y-97228571D01*
X161901428Y-97228571D01*
X161901428Y-95728571D01*
X162401428Y-95728571D01*
X162544285Y-95800000D01*
X162615714Y-95871428D01*
X162687142Y-96014285D01*
X162687142Y-96157142D01*
X162615714Y-96300000D01*
X162544285Y-96371428D01*
X162401428Y-96442857D01*
X161901428Y-96442857D01*
X144687142Y-99678571D02*
X144687142Y-98178571D01*
X145187142Y-99250000D01*
X145687142Y-98178571D01*
X145687142Y-99678571D01*
X146972857Y-99607142D02*
X146830000Y-99678571D01*
X146544285Y-99678571D01*
X146401428Y-99607142D01*
X146330000Y-99464285D01*
X146330000Y-98892857D01*
X146401428Y-98750000D01*
X146544285Y-98678571D01*
X146830000Y-98678571D01*
X146972857Y-98750000D01*
X147044285Y-98892857D01*
X147044285Y-99035714D01*
X146330000Y-99178571D01*
X147687142Y-99678571D02*
X147687142Y-98678571D01*
X147687142Y-98821428D02*
X147758571Y-98750000D01*
X147901428Y-98678571D01*
X148115714Y-98678571D01*
X148258571Y-98750000D01*
X148330000Y-98892857D01*
X148330000Y-99678571D01*
X148330000Y-98892857D02*
X148401428Y-98750000D01*
X148544285Y-98678571D01*
X148758571Y-98678571D01*
X148901428Y-98750000D01*
X148972857Y-98892857D01*
X148972857Y-99678571D01*
X149901428Y-99678571D02*
X149758571Y-99607142D01*
X149687142Y-99535714D01*
X149615714Y-99392857D01*
X149615714Y-98964285D01*
X149687142Y-98821428D01*
X149758571Y-98750000D01*
X149901428Y-98678571D01*
X150115714Y-98678571D01*
X150258571Y-98750000D01*
X150330000Y-98821428D01*
X150401428Y-98964285D01*
X150401428Y-99392857D01*
X150330000Y-99535714D01*
X150258571Y-99607142D01*
X150115714Y-99678571D01*
X149901428Y-99678571D01*
X151044285Y-99678571D02*
X151044285Y-98678571D01*
X151044285Y-98964285D02*
X151115714Y-98821428D01*
X151187142Y-98750000D01*
X151330000Y-98678571D01*
X151472857Y-98678571D01*
X151830000Y-98678571D02*
X152187142Y-99678571D01*
X152544285Y-98678571D02*
X152187142Y-99678571D01*
X152044285Y-100035714D01*
X151972857Y-100107142D01*
X151830000Y-100178571D01*
X154758571Y-98892857D02*
X154972857Y-98964285D01*
X155044285Y-99035714D01*
X155115714Y-99178571D01*
X155115714Y-99392857D01*
X155044285Y-99535714D01*
X154972857Y-99607142D01*
X154830000Y-99678571D01*
X154258571Y-99678571D01*
X154258571Y-98178571D01*
X154758571Y-98178571D01*
X154901428Y-98250000D01*
X154972857Y-98321428D01*
X155044285Y-98464285D01*
X155044285Y-98607142D01*
X154972857Y-98750000D01*
X154901428Y-98821428D01*
X154758571Y-98892857D01*
X154258571Y-98892857D01*
X155972857Y-99678571D02*
X155830000Y-99607142D01*
X155758571Y-99535714D01*
X155687142Y-99392857D01*
X155687142Y-98964285D01*
X155758571Y-98821428D01*
X155830000Y-98750000D01*
X155972857Y-98678571D01*
X156187142Y-98678571D01*
X156330000Y-98750000D01*
X156401428Y-98821428D01*
X156472857Y-98964285D01*
X156472857Y-99392857D01*
X156401428Y-99535714D01*
X156330000Y-99607142D01*
X156187142Y-99678571D01*
X155972857Y-99678571D01*
X157758571Y-99678571D02*
X157758571Y-98892857D01*
X157687142Y-98750000D01*
X157544285Y-98678571D01*
X157258571Y-98678571D01*
X157115714Y-98750000D01*
X157758571Y-99607142D02*
X157615714Y-99678571D01*
X157258571Y-99678571D01*
X157115714Y-99607142D01*
X157044285Y-99464285D01*
X157044285Y-99321428D01*
X157115714Y-99178571D01*
X157258571Y-99107142D01*
X157615714Y-99107142D01*
X157758571Y-99035714D01*
X158472857Y-99678571D02*
X158472857Y-98678571D01*
X158472857Y-98964285D02*
X158544285Y-98821428D01*
X158615714Y-98750000D01*
X158758571Y-98678571D01*
X158901428Y-98678571D01*
X160044285Y-99678571D02*
X160044285Y-98178571D01*
X160044285Y-99607142D02*
X159901428Y-99678571D01*
X159615714Y-99678571D01*
X159472857Y-99607142D01*
X159401428Y-99535714D01*
X159330000Y-99392857D01*
X159330000Y-98964285D01*
X159401428Y-98821428D01*
X159472857Y-98750000D01*
X159615714Y-98678571D01*
X159901428Y-98678571D01*
X160044285Y-98750000D01*
X145115714Y-102628571D02*
X144758571Y-102628571D01*
X144758571Y-100485714D01*
X145115714Y-100485714D01*
X145687142Y-102128571D02*
X145687142Y-100628571D01*
X146544285Y-102128571D02*
X145901428Y-101271428D01*
X146544285Y-100628571D02*
X145687142Y-101485714D01*
X147187142Y-102128571D02*
X147187142Y-100628571D01*
X147758571Y-100628571D01*
X147901428Y-100700000D01*
X147972857Y-100771428D01*
X148044285Y-100914285D01*
X148044285Y-101128571D01*
X147972857Y-101271428D01*
X147901428Y-101342857D01*
X147758571Y-101414285D01*
X147187142Y-101414285D01*
X148901428Y-101271428D02*
X148758571Y-101200000D01*
X148687142Y-101128571D01*
X148615714Y-100985714D01*
X148615714Y-100914285D01*
X148687142Y-100771428D01*
X148758571Y-100700000D01*
X148901428Y-100628571D01*
X149187142Y-100628571D01*
X149330000Y-100700000D01*
X149401428Y-100771428D01*
X149472857Y-100914285D01*
X149472857Y-100985714D01*
X149401428Y-101128571D01*
X149330000Y-101200000D01*
X149187142Y-101271428D01*
X148901428Y-101271428D01*
X148758571Y-101342857D01*
X148687142Y-101414285D01*
X148615714Y-101557142D01*
X148615714Y-101842857D01*
X148687142Y-101985714D01*
X148758571Y-102057142D01*
X148901428Y-102128571D01*
X149187142Y-102128571D01*
X149330000Y-102057142D01*
X149401428Y-101985714D01*
X149472857Y-101842857D01*
X149472857Y-101557142D01*
X149401428Y-101414285D01*
X149330000Y-101342857D01*
X149187142Y-101271428D01*
X150401428Y-100628571D02*
X150544285Y-100628571D01*
X150687142Y-100700000D01*
X150758571Y-100771428D01*
X150830000Y-100914285D01*
X150901428Y-101200000D01*
X150901428Y-101557142D01*
X150830000Y-101842857D01*
X150758571Y-101985714D01*
X150687142Y-102057142D01*
X150544285Y-102128571D01*
X150401428Y-102128571D01*
X150258571Y-102057142D01*
X150187142Y-101985714D01*
X150115714Y-101842857D01*
X150044285Y-101557142D01*
X150044285Y-101200000D01*
X150115714Y-100914285D01*
X150187142Y-100771428D01*
X150258571Y-100700000D01*
X150401428Y-100628571D01*
X151544285Y-101557142D02*
X152687142Y-101557142D01*
X153401428Y-102128571D02*
X153401428Y-100628571D01*
X153901428Y-101700000D01*
X154401428Y-100628571D01*
X154401428Y-102128571D01*
X155115714Y-101342857D02*
X155615714Y-101342857D01*
X155830000Y-102128571D02*
X155115714Y-102128571D01*
X155115714Y-100628571D01*
X155830000Y-100628571D01*
X156472857Y-102128571D02*
X156472857Y-100628571D01*
X156972857Y-101700000D01*
X157472857Y-100628571D01*
X157472857Y-102128571D01*
X158972857Y-102128571D02*
X158115714Y-102128571D01*
X158544285Y-102128571D02*
X158544285Y-100628571D01*
X158401428Y-100842857D01*
X158258571Y-100985714D01*
X158115714Y-101057142D01*
X159544285Y-100771428D02*
X159615714Y-100700000D01*
X159758571Y-100628571D01*
X160115714Y-100628571D01*
X160258571Y-100700000D01*
X160330000Y-100771428D01*
X160401428Y-100914285D01*
X160401428Y-101057142D01*
X160330000Y-101271428D01*
X159472857Y-102128571D01*
X160401428Y-102128571D01*
X161258571Y-101271428D02*
X161115714Y-101200000D01*
X161044285Y-101128571D01*
X160972857Y-100985714D01*
X160972857Y-100914285D01*
X161044285Y-100771428D01*
X161115714Y-100700000D01*
X161258571Y-100628571D01*
X161544285Y-100628571D01*
X161687142Y-100700000D01*
X161758571Y-100771428D01*
X161830000Y-100914285D01*
X161830000Y-100985714D01*
X161758571Y-101128571D01*
X161687142Y-101200000D01*
X161544285Y-101271428D01*
X161258571Y-101271428D01*
X161115714Y-101342857D01*
X161044285Y-101414285D01*
X160972857Y-101557142D01*
X160972857Y-101842857D01*
X161044285Y-101985714D01*
X161115714Y-102057142D01*
X161258571Y-102128571D01*
X161544285Y-102128571D01*
X161687142Y-102057142D01*
X161758571Y-101985714D01*
X161830000Y-101842857D01*
X161830000Y-101557142D01*
X161758571Y-101414285D01*
X161687142Y-101342857D01*
X161544285Y-101271428D01*
X162330000Y-102628571D02*
X162687142Y-102628571D01*
X162687142Y-100485714D01*
X162330000Y-100485714D01*
D10*
X153940476Y-105452380D02*
X153940476Y-104452380D01*
X154511904Y-105452380D02*
X154083333Y-104880952D01*
X154511904Y-104452380D02*
X153940476Y-105023809D01*
X154940476Y-104452380D02*
X154940476Y-105261904D01*
X154988095Y-105357142D01*
X155035714Y-105404761D01*
X155130952Y-105452380D01*
X155321428Y-105452380D01*
X155416666Y-105404761D01*
X155464285Y-105357142D01*
X155511904Y-105261904D01*
X155511904Y-104452380D01*
X155988095Y-105452380D02*
X155988095Y-104452380D01*
X156559523Y-105452380D01*
X156559523Y-104452380D01*
X157035714Y-105452380D02*
X157035714Y-104452380D01*
X157511904Y-105071428D02*
X158273809Y-105071428D01*
X158750000Y-105452380D02*
X158750000Y-104452380D01*
X159321428Y-105452380D01*
X159321428Y-104452380D01*
X159797619Y-104928571D02*
X160130952Y-104928571D01*
X160273809Y-105452380D02*
X159797619Y-105452380D01*
X159797619Y-104452380D01*
X160273809Y-104452380D01*
X160559523Y-104452380D02*
X161130952Y-104452380D01*
X160845238Y-105452380D02*
X160845238Y-104452380D01*
X162178571Y-104547619D02*
X162226190Y-104500000D01*
X162321428Y-104452380D01*
X162559523Y-104452380D01*
X162654761Y-104500000D01*
X162702380Y-104547619D01*
X162750000Y-104642857D01*
X162750000Y-104738095D01*
X162702380Y-104880952D01*
X162130952Y-105452380D01*
X162750000Y-105452380D01*
X163369047Y-104452380D02*
X163464285Y-104452380D01*
X163559523Y-104500000D01*
X163607142Y-104547619D01*
X163654761Y-104642857D01*
X163702380Y-104833333D01*
X163702380Y-105071428D01*
X163654761Y-105261904D01*
X163607142Y-105357142D01*
X163559523Y-105404761D01*
X163464285Y-105452380D01*
X163369047Y-105452380D01*
X163273809Y-105404761D01*
X163226190Y-105357142D01*
X163178571Y-105261904D01*
X163130952Y-105071428D01*
X163130952Y-104833333D01*
X163178571Y-104642857D01*
X163226190Y-104547619D01*
X163273809Y-104500000D01*
X163369047Y-104452380D01*
X164083333Y-104547619D02*
X164130952Y-104500000D01*
X164226190Y-104452380D01*
X164464285Y-104452380D01*
X164559523Y-104500000D01*
X164607142Y-104547619D01*
X164654761Y-104642857D01*
X164654761Y-104738095D01*
X164607142Y-104880952D01*
X164035714Y-105452380D01*
X164654761Y-105452380D01*
X165607142Y-105452380D02*
X165035714Y-105452380D01*
X165321428Y-105452380D02*
X165321428Y-104452380D01*
X165226190Y-104595238D01*
X165130952Y-104690476D01*
X165035714Y-104738095D01*
X101535714Y-118452380D02*
X100964285Y-118452380D01*
X101250000Y-118452380D02*
X101250000Y-117452380D01*
X101154761Y-117595238D01*
X101059523Y-117690476D01*
X100964285Y-117738095D01*
X108952380Y-117452380D02*
X109047619Y-117452380D01*
X109142857Y-117500000D01*
X109190476Y-117547619D01*
X109238095Y-117642857D01*
X109285714Y-117833333D01*
X109285714Y-118071428D01*
X109238095Y-118261904D01*
X109190476Y-118357142D01*
X109142857Y-118404761D01*
X109047619Y-118452380D01*
X108952380Y-118452380D01*
X108857142Y-118404761D01*
X108809523Y-118357142D01*
X108761904Y-118261904D01*
X108714285Y-118071428D01*
X108714285Y-117833333D01*
X108761904Y-117642857D01*
X108809523Y-117547619D01*
X108857142Y-117500000D01*
X108952380Y-117452380D01*
X100654761Y-119428571D02*
X100797619Y-119476190D01*
X100845238Y-119523809D01*
X100892857Y-119619047D01*
X100892857Y-119761904D01*
X100845238Y-119857142D01*
X100797619Y-119904761D01*
X100702380Y-119952380D01*
X100321428Y-119952380D01*
X100321428Y-118952380D01*
X100654761Y-118952380D01*
X100750000Y-119000000D01*
X100797619Y-119047619D01*
X100845238Y-119142857D01*
X100845238Y-119238095D01*
X100797619Y-119333333D01*
X100750000Y-119380952D01*
X100654761Y-119428571D01*
X100321428Y-119428571D01*
X101273809Y-119666666D02*
X101750000Y-119666666D01*
X101178571Y-119952380D02*
X101511904Y-118952380D01*
X101845238Y-119952380D01*
X102178571Y-119952380D02*
X102178571Y-118952380D01*
X102750000Y-119952380D01*
X102750000Y-118952380D01*
X103226190Y-119952380D02*
X103226190Y-118952380D01*
X103797619Y-119952380D02*
X103369047Y-119380952D01*
X103797619Y-118952380D02*
X103226190Y-119523809D01*
X104988095Y-119952380D02*
X104988095Y-118952380D01*
X105559523Y-119952380D01*
X105559523Y-118952380D01*
X106464285Y-119285714D02*
X106464285Y-119952380D01*
X106035714Y-119285714D02*
X106035714Y-119809523D01*
X106083333Y-119904761D01*
X106178571Y-119952380D01*
X106321428Y-119952380D01*
X106416666Y-119904761D01*
X106464285Y-119857142D01*
X106940476Y-119952380D02*
X106940476Y-119285714D01*
X106940476Y-119380952D02*
X106988095Y-119333333D01*
X107083333Y-119285714D01*
X107226190Y-119285714D01*
X107321428Y-119333333D01*
X107369047Y-119428571D01*
X107369047Y-119952380D01*
X107369047Y-119428571D02*
X107416666Y-119333333D01*
X107511904Y-119285714D01*
X107654761Y-119285714D01*
X107750000Y-119333333D01*
X107797619Y-119428571D01*
X107797619Y-119952380D01*
X108273809Y-119952380D02*
X108273809Y-118952380D01*
X108273809Y-119333333D02*
X108369047Y-119285714D01*
X108559523Y-119285714D01*
X108654761Y-119333333D01*
X108702380Y-119380952D01*
X108750000Y-119476190D01*
X108750000Y-119761904D01*
X108702380Y-119857142D01*
X108654761Y-119904761D01*
X108559523Y-119952380D01*
X108369047Y-119952380D01*
X108273809Y-119904761D01*
X109559523Y-119904761D02*
X109464285Y-119952380D01*
X109273809Y-119952380D01*
X109178571Y-119904761D01*
X109130952Y-119809523D01*
X109130952Y-119428571D01*
X109178571Y-119333333D01*
X109273809Y-119285714D01*
X109464285Y-119285714D01*
X109559523Y-119333333D01*
X109607142Y-119428571D01*
X109607142Y-119523809D01*
X109130952Y-119619047D01*
X110035714Y-119952380D02*
X110035714Y-119285714D01*
X110035714Y-119476190D02*
X110083333Y-119380952D01*
X110130952Y-119333333D01*
X110226190Y-119285714D01*
X110321428Y-119285714D01*
X99250000Y-108702380D02*
X99488095Y-109702380D01*
X99678571Y-108988095D01*
X99869047Y-109702380D01*
X100107142Y-108702380D01*
X101059523Y-109702380D02*
X100726190Y-109226190D01*
X100488095Y-109702380D02*
X100488095Y-108702380D01*
X100869047Y-108702380D01*
X100964285Y-108750000D01*
X101011904Y-108797619D01*
X101059523Y-108892857D01*
X101059523Y-109035714D01*
X101011904Y-109130952D01*
X100964285Y-109178571D01*
X100869047Y-109226190D01*
X100488095Y-109226190D01*
X101488095Y-109702380D02*
X101488095Y-108702380D01*
X101821428Y-108702380D02*
X102392857Y-108702380D01*
X102107142Y-109702380D02*
X102107142Y-108702380D01*
X102726190Y-109178571D02*
X103059523Y-109178571D01*
X103202380Y-109702380D02*
X102726190Y-109702380D01*
X102726190Y-108702380D01*
X103202380Y-108702380D01*
X108178571Y-109702380D02*
X107845238Y-109226190D01*
X107607142Y-109702380D02*
X107607142Y-108702380D01*
X107988095Y-108702380D01*
X108083333Y-108750000D01*
X108130952Y-108797619D01*
X108178571Y-108892857D01*
X108178571Y-109035714D01*
X108130952Y-109130952D01*
X108083333Y-109178571D01*
X107988095Y-109226190D01*
X107607142Y-109226190D01*
X108607142Y-109178571D02*
X108940476Y-109178571D01*
X109083333Y-109702380D02*
X108607142Y-109702380D01*
X108607142Y-108702380D01*
X109083333Y-108702380D01*
X109464285Y-109416666D02*
X109940476Y-109416666D01*
X109369047Y-109702380D02*
X109702380Y-108702380D01*
X110035714Y-109702380D01*
X110369047Y-109702380D02*
X110369047Y-108702380D01*
X110607142Y-108702380D01*
X110749999Y-108750000D01*
X110845238Y-108845238D01*
X110892857Y-108940476D01*
X110940476Y-109130952D01*
X110940476Y-109273809D01*
X110892857Y-109464285D01*
X110845238Y-109559523D01*
X110749999Y-109654761D01*
X110607142Y-109702380D01*
X110369047Y-109702380D01*
X99916666Y-102202380D02*
X99583333Y-101726190D01*
X99345238Y-102202380D02*
X99345238Y-101202380D01*
X99726190Y-101202380D01*
X99821428Y-101250000D01*
X99869047Y-101297619D01*
X99916666Y-101392857D01*
X99916666Y-101535714D01*
X99869047Y-101630952D01*
X99821428Y-101678571D01*
X99726190Y-101726190D01*
X99345238Y-101726190D01*
X100297619Y-101916666D02*
X100773809Y-101916666D01*
X100202380Y-102202380D02*
X100535714Y-101202380D01*
X100869047Y-102202380D01*
X101202380Y-102202380D02*
X101202380Y-101202380D01*
X101535714Y-101916666D01*
X101869047Y-101202380D01*
X101869047Y-102202380D01*
X103107142Y-101678571D02*
X103440476Y-101678571D01*
X103583333Y-102202380D02*
X103107142Y-102202380D01*
X103107142Y-101202380D01*
X103583333Y-101202380D01*
X104011904Y-102202380D02*
X104011904Y-101202380D01*
X104583333Y-102202380D01*
X104583333Y-101202380D01*
X105011904Y-101916666D02*
X105488095Y-101916666D01*
X104916666Y-102202380D02*
X105250000Y-101202380D01*
X105583333Y-102202380D01*
X106250000Y-101678571D02*
X106392857Y-101726190D01*
X106440476Y-101773809D01*
X106488095Y-101869047D01*
X106488095Y-102011904D01*
X106440476Y-102107142D01*
X106392857Y-102154761D01*
X106297619Y-102202380D01*
X105916666Y-102202380D01*
X105916666Y-101202380D01*
X106250000Y-101202380D01*
X106345238Y-101250000D01*
X106392857Y-101297619D01*
X106440476Y-101392857D01*
X106440476Y-101488095D01*
X106392857Y-101583333D01*
X106345238Y-101630952D01*
X106250000Y-101678571D01*
X105916666Y-101678571D01*
X107392857Y-102202380D02*
X106916666Y-102202380D01*
X106916666Y-101202380D01*
X107726190Y-101678571D02*
X108059523Y-101678571D01*
X108202380Y-102202380D02*
X107726190Y-102202380D01*
X107726190Y-101202380D01*
X108202380Y-101202380D01*
D12*
X97670000Y-67170000D02*
X99000000Y-67170000D01*
X97670000Y-68500000D02*
X97670000Y-67170000D01*
X97670000Y-69770000D02*
X100330000Y-69770000D01*
X100330000Y-69770000D02*
X100330000Y-72370000D01*
X97670000Y-69770000D02*
X97670000Y-72370000D01*
X97670000Y-72370000D02*
X100330000Y-72370000D01*
X144110000Y-107430000D02*
X144110000Y-125330000D01*
X184990000Y-107430000D02*
X144110000Y-107430000D01*
X184990000Y-125330000D02*
X184990000Y-107430000D01*
X144110000Y-125330000D02*
X184990000Y-125330000D01*
X144170000Y-109920000D02*
X144170000Y-115380000D01*
X184930000Y-109920000D02*
X144170000Y-109920000D01*
X184930000Y-122840000D02*
X184930000Y-109920000D01*
X144170000Y-122840000D02*
X184930000Y-122840000D01*
X144170000Y-117380000D02*
X144170000Y-122840000D01*
X144170000Y-115380000D02*
G75*
G02X144170000Y-117380000I0J-1000000D01*
G01*
X114110000Y-71550000D02*
X114110000Y-81830000D01*
X139750000Y-71550000D02*
X114110000Y-71550000D01*
X139750000Y-81830000D02*
X139750000Y-71550000D01*
X114110000Y-81830000D02*
X139750000Y-81830000D01*
X114170000Y-74040000D02*
X114170000Y-75690000D01*
X139690000Y-74040000D02*
X114170000Y-74040000D01*
X139690000Y-79340000D02*
X139690000Y-74040000D01*
X114170000Y-79340000D02*
X139690000Y-79340000D01*
X114170000Y-77690000D02*
X114170000Y-79340000D01*
X114170000Y-75690000D02*
G75*
G02X114170000Y-77690000I0J-1000000D01*
G01*
X114110000Y-98550000D02*
X114110000Y-108830000D01*
X139750000Y-98550000D02*
X114110000Y-98550000D01*
X139750000Y-108830000D02*
X139750000Y-98550000D01*
X114110000Y-108830000D02*
X139750000Y-108830000D01*
X114170000Y-101040000D02*
X114170000Y-102690000D01*
X139690000Y-101040000D02*
X114170000Y-101040000D01*
X139690000Y-106340000D02*
X139690000Y-101040000D01*
X114170000Y-106340000D02*
X139690000Y-106340000D01*
X114170000Y-104690000D02*
X114170000Y-106340000D01*
X114170000Y-102690000D02*
G75*
G02X114170000Y-104690000I0J-1000000D01*
G01*
X114110000Y-85050000D02*
X114110000Y-95330000D01*
X139750000Y-85050000D02*
X114110000Y-85050000D01*
X139750000Y-95330000D02*
X139750000Y-85050000D01*
X114110000Y-95330000D02*
X139750000Y-95330000D01*
X114170000Y-87540000D02*
X114170000Y-89190000D01*
X139690000Y-87540000D02*
X114170000Y-87540000D01*
X139690000Y-92840000D02*
X139690000Y-87540000D01*
X114170000Y-92840000D02*
X139690000Y-92840000D01*
X114170000Y-91190000D02*
X114170000Y-92840000D01*
X114170000Y-89190000D02*
G75*
G02X114170000Y-91190000I0J-1000000D01*
G01*
X193450000Y-72110000D02*
X183170000Y-72110000D01*
X193450000Y-90130000D02*
X193450000Y-72110000D01*
X183170000Y-90130000D02*
X193450000Y-90130000D01*
X183170000Y-72110000D02*
X183170000Y-90130000D01*
X190960000Y-72170000D02*
X189310000Y-72170000D01*
X190960000Y-90070000D02*
X190960000Y-72170000D01*
X185660000Y-90070000D02*
X190960000Y-90070000D01*
X185660000Y-72170000D02*
X185660000Y-90070000D01*
X187310000Y-72170000D02*
X185660000Y-72170000D01*
X189310000Y-72170000D02*
G75*
G02X187310000Y-72170000I-1000000J0D01*
G01*
X172110000Y-94050000D02*
X172110000Y-104330000D01*
X192670000Y-94050000D02*
X172110000Y-94050000D01*
X192670000Y-104330000D02*
X192670000Y-94050000D01*
X172110000Y-104330000D02*
X192670000Y-104330000D01*
X172170000Y-96540000D02*
X172170000Y-98190000D01*
X192610000Y-96540000D02*
X172170000Y-96540000D01*
X192610000Y-101840000D02*
X192610000Y-96540000D01*
X172170000Y-101840000D02*
X192610000Y-101840000D01*
X172170000Y-100190000D02*
X172170000Y-101840000D01*
X172170000Y-98190000D02*
G75*
G02X172170000Y-100190000I0J-1000000D01*
G01*
X167950000Y-72110000D02*
X157670000Y-72110000D01*
X167950000Y-92670000D02*
X167950000Y-72110000D01*
X157670000Y-92670000D02*
X167950000Y-92670000D01*
X157670000Y-72110000D02*
X157670000Y-92670000D01*
X165460000Y-72170000D02*
X163810000Y-72170000D01*
X165460000Y-92610000D02*
X165460000Y-72170000D01*
X160160000Y-92610000D02*
X165460000Y-92610000D01*
X160160000Y-72170000D02*
X160160000Y-92610000D01*
X161810000Y-72170000D02*
X160160000Y-72170000D01*
X163810000Y-72170000D02*
G75*
G02X161810000Y-72170000I-1000000J0D01*
G01*
X109450000Y-78110000D02*
X99170000Y-78110000D01*
X109450000Y-98670000D02*
X109450000Y-78110000D01*
X99170000Y-98670000D02*
X109450000Y-98670000D01*
X99170000Y-78110000D02*
X99170000Y-98670000D01*
X106960000Y-78170000D02*
X105310000Y-78170000D01*
X106960000Y-98610000D02*
X106960000Y-78170000D01*
X101660000Y-98610000D02*
X106960000Y-98610000D01*
X101660000Y-78170000D02*
X101660000Y-98610000D01*
X103310000Y-78170000D02*
X101660000Y-78170000D01*
X105310000Y-78170000D02*
G75*
G02X103310000Y-78170000I-1000000J0D01*
G01*
X154450000Y-72110000D02*
X144170000Y-72110000D01*
X154450000Y-92670000D02*
X154450000Y-72110000D01*
X144170000Y-92670000D02*
X154450000Y-92670000D01*
X144170000Y-72110000D02*
X144170000Y-92670000D01*
X151960000Y-72170000D02*
X150310000Y-72170000D01*
X151960000Y-92610000D02*
X151960000Y-72170000D01*
X146660000Y-92610000D02*
X151960000Y-92610000D01*
X146660000Y-72170000D02*
X146660000Y-92610000D01*
X148310000Y-72170000D02*
X146660000Y-72170000D01*
X150310000Y-72170000D02*
G75*
G02X148310000Y-72170000I-1000000J0D01*
G01*
X180950000Y-72110000D02*
X170670000Y-72110000D01*
X180950000Y-90130000D02*
X180950000Y-72110000D01*
X170670000Y-90130000D02*
X180950000Y-90130000D01*
X170670000Y-72110000D02*
X170670000Y-90130000D01*
X178460000Y-72170000D02*
X176810000Y-72170000D01*
X178460000Y-90070000D02*
X178460000Y-72170000D01*
X173160000Y-90070000D02*
X178460000Y-90070000D01*
X173160000Y-72170000D02*
X173160000Y-90070000D01*
X174810000Y-72170000D02*
X173160000Y-72170000D01*
X176810000Y-72170000D02*
G75*
G02X174810000Y-72170000I-1000000J0D01*
G01*
X116130000Y-124750000D02*
X116900000Y-124750000D01*
X124210000Y-124750000D02*
X123440000Y-124750000D01*
X116900000Y-126120000D02*
X123440000Y-126120000D01*
X116900000Y-123380000D02*
X116900000Y-126120000D01*
X123440000Y-123380000D02*
X116900000Y-123380000D01*
X123440000Y-126120000D02*
X123440000Y-123380000D01*
X116130000Y-121000000D02*
X116900000Y-121000000D01*
X124210000Y-121000000D02*
X123440000Y-121000000D01*
X116900000Y-122370000D02*
X123440000Y-122370000D01*
X116900000Y-119630000D02*
X116900000Y-122370000D01*
X123440000Y-119630000D02*
X116900000Y-119630000D01*
X123440000Y-122370000D02*
X123440000Y-119630000D01*
X116130000Y-117000000D02*
X116900000Y-117000000D01*
X124210000Y-117000000D02*
X123440000Y-117000000D01*
X116900000Y-118370000D02*
X123440000Y-118370000D01*
X116900000Y-115630000D02*
X116900000Y-118370000D01*
X123440000Y-115630000D02*
X116900000Y-115630000D01*
X123440000Y-118370000D02*
X123440000Y-115630000D01*
X116130000Y-113000000D02*
X116900000Y-113000000D01*
X124210000Y-113000000D02*
X123440000Y-113000000D01*
X116900000Y-114370000D02*
X123440000Y-114370000D01*
X116900000Y-111630000D02*
X116900000Y-114370000D01*
X123440000Y-111630000D02*
X116900000Y-111630000D01*
X123440000Y-114370000D02*
X123440000Y-111630000D01*
X114230000Y-67770000D02*
X114230000Y-66500000D01*
X115500000Y-67770000D02*
X114230000Y-67770000D01*
X176840000Y-65457071D02*
X176840000Y-65002929D01*
X176080000Y-65457071D02*
X176080000Y-65002929D01*
X176840000Y-62917071D02*
X176840000Y-62520000D01*
X176080000Y-62917071D02*
X176080000Y-62520000D01*
X176840000Y-53860000D02*
X176840000Y-59860000D01*
X176080000Y-53860000D02*
X176840000Y-53860000D01*
X176080000Y-59860000D02*
X176080000Y-53860000D01*
X175190000Y-62520000D02*
X175190000Y-59860000D01*
X174300000Y-65457071D02*
X174300000Y-65002929D01*
X173540000Y-65457071D02*
X173540000Y-65002929D01*
X174300000Y-62917071D02*
X174300000Y-62520000D01*
X173540000Y-62917071D02*
X173540000Y-62520000D01*
X174300000Y-53860000D02*
X174300000Y-59860000D01*
X173540000Y-53860000D02*
X174300000Y-53860000D01*
X173540000Y-59860000D02*
X173540000Y-53860000D01*
X172650000Y-62520000D02*
X172650000Y-59860000D01*
X171760000Y-65457071D02*
X171760000Y-65002929D01*
X171000000Y-65457071D02*
X171000000Y-65002929D01*
X171760000Y-62917071D02*
X171760000Y-62520000D01*
X171000000Y-62917071D02*
X171000000Y-62520000D01*
X171760000Y-53860000D02*
X171760000Y-59860000D01*
X171000000Y-53860000D02*
X171760000Y-53860000D01*
X171000000Y-59860000D02*
X171000000Y-53860000D01*
X170110000Y-62520000D02*
X170110000Y-59860000D01*
X169220000Y-65457071D02*
X169220000Y-65002929D01*
X168460000Y-65457071D02*
X168460000Y-65002929D01*
X169220000Y-62917071D02*
X169220000Y-62520000D01*
X168460000Y-62917071D02*
X168460000Y-62520000D01*
X169220000Y-53860000D02*
X169220000Y-59860000D01*
X168460000Y-53860000D02*
X169220000Y-53860000D01*
X168460000Y-59860000D02*
X168460000Y-53860000D01*
X167570000Y-62520000D02*
X167570000Y-59860000D01*
X166680000Y-65457071D02*
X166680000Y-65002929D01*
X165920000Y-65457071D02*
X165920000Y-65002929D01*
X166680000Y-62917071D02*
X166680000Y-62520000D01*
X165920000Y-62917071D02*
X165920000Y-62520000D01*
X166680000Y-53860000D02*
X166680000Y-59860000D01*
X165920000Y-53860000D02*
X166680000Y-53860000D01*
X165920000Y-59860000D02*
X165920000Y-53860000D01*
X165030000Y-62520000D02*
X165030000Y-59860000D01*
X164140000Y-65457071D02*
X164140000Y-65002929D01*
X163380000Y-65457071D02*
X163380000Y-65002929D01*
X164140000Y-62917071D02*
X164140000Y-62520000D01*
X163380000Y-62917071D02*
X163380000Y-62520000D01*
X164140000Y-53860000D02*
X164140000Y-59860000D01*
X163380000Y-53860000D02*
X164140000Y-53860000D01*
X163380000Y-59860000D02*
X163380000Y-53860000D01*
X162490000Y-62520000D02*
X162490000Y-59860000D01*
X161600000Y-65457071D02*
X161600000Y-65002929D01*
X160840000Y-65457071D02*
X160840000Y-65002929D01*
X161600000Y-62917071D02*
X161600000Y-62520000D01*
X160840000Y-62917071D02*
X160840000Y-62520000D01*
X161600000Y-53860000D02*
X161600000Y-59860000D01*
X160840000Y-53860000D02*
X161600000Y-53860000D01*
X160840000Y-59860000D02*
X160840000Y-53860000D01*
X159950000Y-62520000D02*
X159950000Y-59860000D01*
X159060000Y-65457071D02*
X159060000Y-65002929D01*
X158300000Y-65457071D02*
X158300000Y-65002929D01*
X159060000Y-62917071D02*
X159060000Y-62520000D01*
X158300000Y-62917071D02*
X158300000Y-62520000D01*
X159060000Y-53860000D02*
X159060000Y-59860000D01*
X158300000Y-53860000D02*
X159060000Y-53860000D01*
X158300000Y-59860000D02*
X158300000Y-53860000D01*
X157410000Y-62520000D02*
X157410000Y-59860000D01*
X156520000Y-65457071D02*
X156520000Y-65002929D01*
X155760000Y-65457071D02*
X155760000Y-65002929D01*
X156520000Y-62917071D02*
X156520000Y-62520000D01*
X155760000Y-62917071D02*
X155760000Y-62520000D01*
X156520000Y-53860000D02*
X156520000Y-59860000D01*
X155760000Y-53860000D02*
X156520000Y-53860000D01*
X155760000Y-59860000D02*
X155760000Y-53860000D01*
X154870000Y-62520000D02*
X154870000Y-59860000D01*
X153980000Y-65457071D02*
X153980000Y-65002929D01*
X153220000Y-65457071D02*
X153220000Y-65002929D01*
X153980000Y-62917071D02*
X153980000Y-62520000D01*
X153220000Y-62917071D02*
X153220000Y-62520000D01*
X153980000Y-53860000D02*
X153980000Y-59860000D01*
X153220000Y-53860000D02*
X153980000Y-53860000D01*
X153220000Y-59860000D02*
X153220000Y-53860000D01*
X152330000Y-62520000D02*
X152330000Y-59860000D01*
X151440000Y-65457071D02*
X151440000Y-65002929D01*
X150680000Y-65457071D02*
X150680000Y-65002929D01*
X151440000Y-62917071D02*
X151440000Y-62520000D01*
X150680000Y-62917071D02*
X150680000Y-62520000D01*
X151440000Y-53860000D02*
X151440000Y-59860000D01*
X150680000Y-53860000D02*
X151440000Y-53860000D01*
X150680000Y-59860000D02*
X150680000Y-53860000D01*
X149790000Y-62520000D02*
X149790000Y-59860000D01*
X148900000Y-65457071D02*
X148900000Y-65002929D01*
X148140000Y-65457071D02*
X148140000Y-65002929D01*
X148900000Y-62917071D02*
X148900000Y-62520000D01*
X148140000Y-62917071D02*
X148140000Y-62520000D01*
X148900000Y-53860000D02*
X148900000Y-59860000D01*
X148140000Y-53860000D02*
X148900000Y-53860000D01*
X148140000Y-59860000D02*
X148140000Y-53860000D01*
X147250000Y-62520000D02*
X147250000Y-59860000D01*
X146360000Y-65457071D02*
X146360000Y-65002929D01*
X145600000Y-65457071D02*
X145600000Y-65002929D01*
X146360000Y-62917071D02*
X146360000Y-62520000D01*
X145600000Y-62917071D02*
X145600000Y-62520000D01*
X146360000Y-53860000D02*
X146360000Y-59860000D01*
X145600000Y-53860000D02*
X146360000Y-53860000D01*
X145600000Y-59860000D02*
X145600000Y-53860000D01*
X144710000Y-62520000D02*
X144710000Y-59860000D01*
X143820000Y-65457071D02*
X143820000Y-65002929D01*
X143060000Y-65457071D02*
X143060000Y-65002929D01*
X143820000Y-62917071D02*
X143820000Y-62520000D01*
X143060000Y-62917071D02*
X143060000Y-62520000D01*
X143820000Y-53860000D02*
X143820000Y-59860000D01*
X143060000Y-53860000D02*
X143820000Y-53860000D01*
X143060000Y-59860000D02*
X143060000Y-53860000D01*
X142170000Y-62520000D02*
X142170000Y-59860000D01*
X141280000Y-65457071D02*
X141280000Y-65002929D01*
X140520000Y-65457071D02*
X140520000Y-65002929D01*
X141280000Y-62917071D02*
X141280000Y-62520000D01*
X140520000Y-62917071D02*
X140520000Y-62520000D01*
X141280000Y-53860000D02*
X141280000Y-59860000D01*
X140520000Y-53860000D02*
X141280000Y-53860000D01*
X140520000Y-59860000D02*
X140520000Y-53860000D01*
X139630000Y-62520000D02*
X139630000Y-59860000D01*
X138740000Y-65457071D02*
X138740000Y-65002929D01*
X137980000Y-65457071D02*
X137980000Y-65002929D01*
X138740000Y-62917071D02*
X138740000Y-62520000D01*
X137980000Y-62917071D02*
X137980000Y-62520000D01*
X138740000Y-53860000D02*
X138740000Y-59860000D01*
X137980000Y-53860000D02*
X138740000Y-53860000D01*
X137980000Y-59860000D02*
X137980000Y-53860000D01*
X137090000Y-62520000D02*
X137090000Y-59860000D01*
X136200000Y-65457071D02*
X136200000Y-65002929D01*
X135440000Y-65457071D02*
X135440000Y-65002929D01*
X136200000Y-62917071D02*
X136200000Y-62520000D01*
X135440000Y-62917071D02*
X135440000Y-62520000D01*
X136200000Y-53860000D02*
X136200000Y-59860000D01*
X135440000Y-53860000D02*
X136200000Y-53860000D01*
X135440000Y-59860000D02*
X135440000Y-53860000D01*
X134550000Y-62520000D02*
X134550000Y-59860000D01*
X133660000Y-65457071D02*
X133660000Y-65002929D01*
X132900000Y-65457071D02*
X132900000Y-65002929D01*
X133660000Y-62917071D02*
X133660000Y-62520000D01*
X132900000Y-62917071D02*
X132900000Y-62520000D01*
X133660000Y-53860000D02*
X133660000Y-59860000D01*
X132900000Y-53860000D02*
X133660000Y-53860000D01*
X132900000Y-59860000D02*
X132900000Y-53860000D01*
X132010000Y-62520000D02*
X132010000Y-59860000D01*
X131120000Y-65457071D02*
X131120000Y-65002929D01*
X130360000Y-65457071D02*
X130360000Y-65002929D01*
X131120000Y-62917071D02*
X131120000Y-62520000D01*
X130360000Y-62917071D02*
X130360000Y-62520000D01*
X131120000Y-53860000D02*
X131120000Y-59860000D01*
X130360000Y-53860000D02*
X131120000Y-53860000D01*
X130360000Y-59860000D02*
X130360000Y-53860000D01*
X129470000Y-62520000D02*
X129470000Y-59860000D01*
X128580000Y-65457071D02*
X128580000Y-65002929D01*
X127820000Y-65457071D02*
X127820000Y-65002929D01*
X128580000Y-62917071D02*
X128580000Y-62520000D01*
X127820000Y-62917071D02*
X127820000Y-62520000D01*
X128580000Y-53860000D02*
X128580000Y-59860000D01*
X127820000Y-53860000D02*
X128580000Y-53860000D01*
X127820000Y-59860000D02*
X127820000Y-53860000D01*
X126930000Y-62520000D02*
X126930000Y-59860000D01*
X126040000Y-65457071D02*
X126040000Y-65002929D01*
X125280000Y-65457071D02*
X125280000Y-65002929D01*
X126040000Y-62917071D02*
X126040000Y-62520000D01*
X125280000Y-62917071D02*
X125280000Y-62520000D01*
X126040000Y-53860000D02*
X126040000Y-59860000D01*
X125280000Y-53860000D02*
X126040000Y-53860000D01*
X125280000Y-59860000D02*
X125280000Y-53860000D01*
X124390000Y-62520000D02*
X124390000Y-59860000D01*
X123500000Y-65457071D02*
X123500000Y-65002929D01*
X122740000Y-65457071D02*
X122740000Y-65002929D01*
X123500000Y-62917071D02*
X123500000Y-62520000D01*
X122740000Y-62917071D02*
X122740000Y-62520000D01*
X123500000Y-53860000D02*
X123500000Y-59860000D01*
X122740000Y-53860000D02*
X123500000Y-53860000D01*
X122740000Y-59860000D02*
X122740000Y-53860000D01*
X121850000Y-62520000D02*
X121850000Y-59860000D01*
X120960000Y-65457071D02*
X120960000Y-65002929D01*
X120200000Y-65457071D02*
X120200000Y-65002929D01*
X120960000Y-62917071D02*
X120960000Y-62520000D01*
X120200000Y-62917071D02*
X120200000Y-62520000D01*
X120960000Y-53860000D02*
X120960000Y-59860000D01*
X120200000Y-53860000D02*
X120960000Y-53860000D01*
X120200000Y-59860000D02*
X120200000Y-53860000D01*
X119310000Y-62520000D02*
X119310000Y-59860000D01*
X118420000Y-65457071D02*
X118420000Y-65002929D01*
X117660000Y-65457071D02*
X117660000Y-65002929D01*
X118420000Y-62917071D02*
X118420000Y-62520000D01*
X117660000Y-62917071D02*
X117660000Y-62520000D01*
X118420000Y-53860000D02*
X118420000Y-59860000D01*
X117660000Y-53860000D02*
X118420000Y-53860000D01*
X117660000Y-59860000D02*
X117660000Y-53860000D01*
X116770000Y-62520000D02*
X116770000Y-59860000D01*
X115880000Y-65390000D02*
X115880000Y-65002929D01*
X115120000Y-65390000D02*
X115120000Y-65002929D01*
X115880000Y-62917071D02*
X115880000Y-62520000D01*
X115120000Y-62917071D02*
X115120000Y-62520000D01*
X115780000Y-59860000D02*
X115780000Y-53860000D01*
X115660000Y-59860000D02*
X115660000Y-53860000D01*
X115540000Y-59860000D02*
X115540000Y-53860000D01*
X115420000Y-59860000D02*
X115420000Y-53860000D01*
X115300000Y-59860000D02*
X115300000Y-53860000D01*
X115180000Y-59860000D02*
X115180000Y-53860000D01*
X115880000Y-53860000D02*
X115880000Y-59860000D01*
X115120000Y-53860000D02*
X115880000Y-53860000D01*
X115120000Y-59860000D02*
X115120000Y-53860000D01*
X114170000Y-59860000D02*
X114170000Y-62520000D01*
X177790000Y-59860000D02*
X114170000Y-59860000D01*
X177790000Y-62520000D02*
X177790000Y-59860000D01*
X114170000Y-62520000D02*
X177790000Y-62520000D01*
X99460000Y-107330000D02*
X99460000Y-107486000D01*
X99460000Y-105014000D02*
X99460000Y-105170000D01*
X102061130Y-107329837D02*
G75*
G02X99979039Y-107330000I-1041130J1079837D01*
G01*
X102061130Y-105170163D02*
G75*
G03X99979039Y-105170000I-1041130J-1079837D01*
G01*
X102692335Y-107328608D02*
G75*
G02X99460000Y-107485516I-1672335J1078608D01*
G01*
X102692335Y-105171392D02*
G75*
G03X99460000Y-105014484I-1672335J-1078608D01*
G01*
X99460000Y-116330000D02*
X99460000Y-116486000D01*
X99460000Y-114014000D02*
X99460000Y-114170000D01*
X102061130Y-116329837D02*
G75*
G02X99979039Y-116330000I-1041130J1079837D01*
G01*
X102061130Y-114170163D02*
G75*
G03X99979039Y-114170000I-1041130J-1079837D01*
G01*
X102692335Y-116328608D02*
G75*
G02X99460000Y-116485516I-1672335J1078608D01*
G01*
X102692335Y-114171392D02*
G75*
G03X99460000Y-114014484I-1672335J-1078608D01*
G01*
X107460000Y-116330000D02*
X107460000Y-116486000D01*
X107460000Y-114014000D02*
X107460000Y-114170000D01*
X110061130Y-116329837D02*
G75*
G02X107979039Y-116330000I-1041130J1079837D01*
G01*
X110061130Y-114170163D02*
G75*
G03X107979039Y-114170000I-1041130J-1079837D01*
G01*
X110692335Y-116328608D02*
G75*
G02X107460000Y-116485516I-1672335J1078608D01*
G01*
X110692335Y-114171392D02*
G75*
G03X107460000Y-114014484I-1672335J-1078608D01*
G01*
X107460000Y-107330000D02*
X107460000Y-107486000D01*
X107460000Y-105014000D02*
X107460000Y-105170000D01*
X110061130Y-107329837D02*
G75*
G02X107979039Y-107330000I-1041130J1079837D01*
G01*
X110061130Y-105170163D02*
G75*
G03X107979039Y-105170000I-1041130J-1079837D01*
G01*
X110692335Y-107328608D02*
G75*
G02X107460000Y-107485516I-1672335J1078608D01*
G01*
X110692335Y-105171392D02*
G75*
G03X107460000Y-105014484I-1672335J-1078608D01*
G01*
X190621000Y-71670000D02*
X191879000Y-71670000D01*
X190621000Y-69830000D02*
X191879000Y-69830000D01*
X108304775Y-71475000D02*
X108304775Y-70975000D01*
X108554775Y-71225000D02*
X108054775Y-71225000D01*
X103149000Y-70034000D02*
X103149000Y-69466000D01*
X103189000Y-70268000D02*
X103189000Y-69232000D01*
X103229000Y-70427000D02*
X103229000Y-69073000D01*
X103269000Y-70555000D02*
X103269000Y-68945000D01*
X103309000Y-70665000D02*
X103309000Y-68835000D01*
X103349000Y-70761000D02*
X103349000Y-68739000D01*
X103389000Y-70848000D02*
X103389000Y-68652000D01*
X103429000Y-70928000D02*
X103429000Y-68572000D01*
X103469000Y-68710000D02*
X103469000Y-68499000D01*
X103469000Y-71001000D02*
X103469000Y-70790000D01*
X103509000Y-68710000D02*
X103509000Y-68431000D01*
X103509000Y-71069000D02*
X103509000Y-70790000D01*
X103549000Y-68710000D02*
X103549000Y-68367000D01*
X103549000Y-71133000D02*
X103549000Y-70790000D01*
X103589000Y-68710000D02*
X103589000Y-68307000D01*
X103589000Y-71193000D02*
X103589000Y-70790000D01*
X103629000Y-68710000D02*
X103629000Y-68250000D01*
X103629000Y-71250000D02*
X103629000Y-70790000D01*
X103669000Y-68710000D02*
X103669000Y-68196000D01*
X103669000Y-71304000D02*
X103669000Y-70790000D01*
X103709000Y-68710000D02*
X103709000Y-68145000D01*
X103709000Y-71355000D02*
X103709000Y-70790000D01*
X103749000Y-68710000D02*
X103749000Y-68097000D01*
X103749000Y-71403000D02*
X103749000Y-70790000D01*
X103789000Y-68710000D02*
X103789000Y-68051000D01*
X103789000Y-71449000D02*
X103789000Y-70790000D01*
X103829000Y-68710000D02*
X103829000Y-68007000D01*
X103829000Y-71493000D02*
X103829000Y-70790000D01*
X103869000Y-68710000D02*
X103869000Y-67965000D01*
X103869000Y-71535000D02*
X103869000Y-70790000D01*
X103909000Y-68710000D02*
X103909000Y-67924000D01*
X103909000Y-71576000D02*
X103909000Y-70790000D01*
X103949000Y-68710000D02*
X103949000Y-67886000D01*
X103949000Y-71614000D02*
X103949000Y-70790000D01*
X103989000Y-68710000D02*
X103989000Y-67849000D01*
X103989000Y-71651000D02*
X103989000Y-70790000D01*
X104029000Y-68710000D02*
X104029000Y-67813000D01*
X104029000Y-71687000D02*
X104029000Y-70790000D01*
X104069000Y-68710000D02*
X104069000Y-67779000D01*
X104069000Y-71721000D02*
X104069000Y-70790000D01*
X104109000Y-68710000D02*
X104109000Y-67746000D01*
X104109000Y-71754000D02*
X104109000Y-70790000D01*
X104149000Y-68710000D02*
X104149000Y-67715000D01*
X104149000Y-71785000D02*
X104149000Y-70790000D01*
X104189000Y-68710000D02*
X104189000Y-67685000D01*
X104189000Y-71815000D02*
X104189000Y-70790000D01*
X104229000Y-68710000D02*
X104229000Y-67655000D01*
X104229000Y-71845000D02*
X104229000Y-70790000D01*
X104269000Y-68710000D02*
X104269000Y-67628000D01*
X104269000Y-71872000D02*
X104269000Y-70790000D01*
X104309000Y-68710000D02*
X104309000Y-67601000D01*
X104309000Y-71899000D02*
X104309000Y-70790000D01*
X104349000Y-68710000D02*
X104349000Y-67575000D01*
X104349000Y-71925000D02*
X104349000Y-70790000D01*
X104389000Y-68710000D02*
X104389000Y-67550000D01*
X104389000Y-71950000D02*
X104389000Y-70790000D01*
X104429000Y-68710000D02*
X104429000Y-67526000D01*
X104429000Y-71974000D02*
X104429000Y-70790000D01*
X104469000Y-68710000D02*
X104469000Y-67503000D01*
X104469000Y-71997000D02*
X104469000Y-70790000D01*
X104509000Y-68710000D02*
X104509000Y-67482000D01*
X104509000Y-72018000D02*
X104509000Y-70790000D01*
X104549000Y-68710000D02*
X104549000Y-67460000D01*
X104549000Y-72040000D02*
X104549000Y-70790000D01*
X104589000Y-68710000D02*
X104589000Y-67440000D01*
X104589000Y-72060000D02*
X104589000Y-70790000D01*
X104629000Y-68710000D02*
X104629000Y-67421000D01*
X104629000Y-72079000D02*
X104629000Y-70790000D01*
X104669000Y-68710000D02*
X104669000Y-67402000D01*
X104669000Y-72098000D02*
X104669000Y-70790000D01*
X104709000Y-68710000D02*
X104709000Y-67385000D01*
X104709000Y-72115000D02*
X104709000Y-70790000D01*
X104749000Y-68710000D02*
X104749000Y-67368000D01*
X104749000Y-72132000D02*
X104749000Y-70790000D01*
X104789000Y-68710000D02*
X104789000Y-67352000D01*
X104789000Y-72148000D02*
X104789000Y-70790000D01*
X104829000Y-68710000D02*
X104829000Y-67336000D01*
X104829000Y-72164000D02*
X104829000Y-70790000D01*
X104869000Y-68710000D02*
X104869000Y-67322000D01*
X104869000Y-72178000D02*
X104869000Y-70790000D01*
X104909000Y-68710000D02*
X104909000Y-67308000D01*
X104909000Y-72192000D02*
X104909000Y-70790000D01*
X104949000Y-68710000D02*
X104949000Y-67295000D01*
X104949000Y-72205000D02*
X104949000Y-70790000D01*
X104989000Y-68710000D02*
X104989000Y-67282000D01*
X104989000Y-72218000D02*
X104989000Y-70790000D01*
X105029000Y-68710000D02*
X105029000Y-67270000D01*
X105029000Y-72230000D02*
X105029000Y-70790000D01*
X105070000Y-68710000D02*
X105070000Y-67259000D01*
X105070000Y-72241000D02*
X105070000Y-70790000D01*
X105110000Y-68710000D02*
X105110000Y-67249000D01*
X105110000Y-72251000D02*
X105110000Y-70790000D01*
X105150000Y-68710000D02*
X105150000Y-67239000D01*
X105150000Y-72261000D02*
X105150000Y-70790000D01*
X105190000Y-68710000D02*
X105190000Y-67230000D01*
X105190000Y-72270000D02*
X105190000Y-70790000D01*
X105230000Y-68710000D02*
X105230000Y-67222000D01*
X105230000Y-72278000D02*
X105230000Y-70790000D01*
X105270000Y-68710000D02*
X105270000Y-67214000D01*
X105270000Y-72286000D02*
X105270000Y-70790000D01*
X105310000Y-68710000D02*
X105310000Y-67207000D01*
X105310000Y-72293000D02*
X105310000Y-70790000D01*
X105350000Y-68710000D02*
X105350000Y-67200000D01*
X105350000Y-72300000D02*
X105350000Y-70790000D01*
X105390000Y-68710000D02*
X105390000Y-67194000D01*
X105390000Y-72306000D02*
X105390000Y-70790000D01*
X105430000Y-68710000D02*
X105430000Y-67189000D01*
X105430000Y-72311000D02*
X105430000Y-70790000D01*
X105470000Y-68710000D02*
X105470000Y-67185000D01*
X105470000Y-72315000D02*
X105470000Y-70790000D01*
X105510000Y-68710000D02*
X105510000Y-67181000D01*
X105510000Y-72319000D02*
X105510000Y-70790000D01*
X105550000Y-72323000D02*
X105550000Y-67177000D01*
X105590000Y-72326000D02*
X105590000Y-67174000D01*
X105630000Y-72328000D02*
X105630000Y-67172000D01*
X105670000Y-72329000D02*
X105670000Y-67171000D01*
X105710000Y-72330000D02*
X105710000Y-67170000D01*
X105750000Y-72330000D02*
X105750000Y-67170000D01*
X108370000Y-69750000D02*
G75*
G03X108370000Y-69750000I-2620000J0D01*
G01*
X178121000Y-71670000D02*
X179379000Y-71670000D01*
X178121000Y-69830000D02*
X179379000Y-69830000D01*
X143420000Y-111129000D02*
X143420000Y-109871000D01*
X141580000Y-111129000D02*
X141580000Y-109871000D01*
X113170000Y-74379000D02*
X113170000Y-73121000D01*
X111330000Y-74379000D02*
X111330000Y-73121000D01*
X113420000Y-101379000D02*
X113420000Y-100121000D01*
X111580000Y-101379000D02*
X111580000Y-100121000D01*
X113420000Y-87879000D02*
X113420000Y-86621000D01*
X111580000Y-87879000D02*
X111580000Y-86621000D01*
X171670000Y-96879000D02*
X171670000Y-95621000D01*
X169830000Y-96879000D02*
X169830000Y-95621000D01*
X165121000Y-71670000D02*
X166379000Y-71670000D01*
X165121000Y-69830000D02*
X166379000Y-69830000D01*
X151621000Y-71920000D02*
X152879000Y-71920000D01*
X151621000Y-70080000D02*
X152879000Y-70080000D01*
D10*
X98666666Y-65622380D02*
X98666666Y-66336666D01*
X98619047Y-66479523D01*
X98523809Y-66574761D01*
X98380952Y-66622380D01*
X98285714Y-66622380D01*
X99095238Y-65717619D02*
X99142857Y-65670000D01*
X99238095Y-65622380D01*
X99476190Y-65622380D01*
X99571428Y-65670000D01*
X99619047Y-65717619D01*
X99666666Y-65812857D01*
X99666666Y-65908095D01*
X99619047Y-66050952D01*
X99047619Y-66622380D01*
X99666666Y-66622380D01*
X142452380Y-120988095D02*
X143261904Y-120988095D01*
X143357142Y-120940476D01*
X143404761Y-120892857D01*
X143452380Y-120797619D01*
X143452380Y-120607142D01*
X143404761Y-120511904D01*
X143357142Y-120464285D01*
X143261904Y-120416666D01*
X142452380Y-120416666D01*
X143452380Y-119416666D02*
X143452380Y-119988095D01*
X143452380Y-119702380D02*
X142452380Y-119702380D01*
X142595238Y-119797619D01*
X142690476Y-119892857D01*
X142738095Y-119988095D01*
X142452380Y-118797619D02*
X142452380Y-118702380D01*
X142500000Y-118607142D01*
X142547619Y-118559523D01*
X142642857Y-118511904D01*
X142833333Y-118464285D01*
X143071428Y-118464285D01*
X143261904Y-118511904D01*
X143357142Y-118559523D01*
X143404761Y-118607142D01*
X143452380Y-118702380D01*
X143452380Y-118797619D01*
X143404761Y-118892857D01*
X143357142Y-118940476D01*
X143261904Y-118988095D01*
X143071428Y-119035714D01*
X142833333Y-119035714D01*
X142642857Y-118988095D01*
X142547619Y-118940476D01*
X142500000Y-118892857D01*
X142452380Y-118797619D01*
X112452380Y-80511904D02*
X113261904Y-80511904D01*
X113357142Y-80464285D01*
X113404761Y-80416666D01*
X113452380Y-80321428D01*
X113452380Y-80130952D01*
X113404761Y-80035714D01*
X113357142Y-79988095D01*
X113261904Y-79940476D01*
X112452380Y-79940476D01*
X113452380Y-79416666D02*
X113452380Y-79226190D01*
X113404761Y-79130952D01*
X113357142Y-79083333D01*
X113214285Y-78988095D01*
X113023809Y-78940476D01*
X112642857Y-78940476D01*
X112547619Y-78988095D01*
X112500000Y-79035714D01*
X112452380Y-79130952D01*
X112452380Y-79321428D01*
X112500000Y-79416666D01*
X112547619Y-79464285D01*
X112642857Y-79511904D01*
X112880952Y-79511904D01*
X112976190Y-79464285D01*
X113023809Y-79416666D01*
X113071428Y-79321428D01*
X113071428Y-79130952D01*
X113023809Y-79035714D01*
X112976190Y-78988095D01*
X112880952Y-78940476D01*
X112452380Y-105261904D02*
X113261904Y-105261904D01*
X113357142Y-105214285D01*
X113404761Y-105166666D01*
X113452380Y-105071428D01*
X113452380Y-104880952D01*
X113404761Y-104785714D01*
X113357142Y-104738095D01*
X113261904Y-104690476D01*
X112452380Y-104690476D01*
X112880952Y-104071428D02*
X112833333Y-104166666D01*
X112785714Y-104214285D01*
X112690476Y-104261904D01*
X112642857Y-104261904D01*
X112547619Y-104214285D01*
X112500000Y-104166666D01*
X112452380Y-104071428D01*
X112452380Y-103880952D01*
X112500000Y-103785714D01*
X112547619Y-103738095D01*
X112642857Y-103690476D01*
X112690476Y-103690476D01*
X112785714Y-103738095D01*
X112833333Y-103785714D01*
X112880952Y-103880952D01*
X112880952Y-104071428D01*
X112928571Y-104166666D01*
X112976190Y-104214285D01*
X113071428Y-104261904D01*
X113261904Y-104261904D01*
X113357142Y-104214285D01*
X113404761Y-104166666D01*
X113452380Y-104071428D01*
X113452380Y-103880952D01*
X113404761Y-103785714D01*
X113357142Y-103738095D01*
X113261904Y-103690476D01*
X113071428Y-103690476D01*
X112976190Y-103738095D01*
X112928571Y-103785714D01*
X112880952Y-103880952D01*
X112452380Y-94761904D02*
X113261904Y-94761904D01*
X113357142Y-94714285D01*
X113404761Y-94666666D01*
X113452380Y-94571428D01*
X113452380Y-94380952D01*
X113404761Y-94285714D01*
X113357142Y-94238095D01*
X113261904Y-94190476D01*
X112452380Y-94190476D01*
X112452380Y-93809523D02*
X112452380Y-93142857D01*
X113452380Y-93571428D01*
X184488095Y-70452380D02*
X184488095Y-71261904D01*
X184535714Y-71357142D01*
X184583333Y-71404761D01*
X184678571Y-71452380D01*
X184869047Y-71452380D01*
X184964285Y-71404761D01*
X185011904Y-71357142D01*
X185059523Y-71261904D01*
X185059523Y-70452380D01*
X185964285Y-70452380D02*
X185773809Y-70452380D01*
X185678571Y-70500000D01*
X185630952Y-70547619D01*
X185535714Y-70690476D01*
X185488095Y-70880952D01*
X185488095Y-71261904D01*
X185535714Y-71357142D01*
X185583333Y-71404761D01*
X185678571Y-71452380D01*
X185869047Y-71452380D01*
X185964285Y-71404761D01*
X186011904Y-71357142D01*
X186059523Y-71261904D01*
X186059523Y-71023809D01*
X186011904Y-70928571D01*
X185964285Y-70880952D01*
X185869047Y-70833333D01*
X185678571Y-70833333D01*
X185583333Y-70880952D01*
X185535714Y-70928571D01*
X185488095Y-71023809D01*
X170622380Y-102511904D02*
X171431904Y-102511904D01*
X171527142Y-102464285D01*
X171574761Y-102416666D01*
X171622380Y-102321428D01*
X171622380Y-102130952D01*
X171574761Y-102035714D01*
X171527142Y-101988095D01*
X171431904Y-101940476D01*
X170622380Y-101940476D01*
X170622380Y-100988095D02*
X170622380Y-101464285D01*
X171098571Y-101511904D01*
X171050952Y-101464285D01*
X171003333Y-101369047D01*
X171003333Y-101130952D01*
X171050952Y-101035714D01*
X171098571Y-100988095D01*
X171193809Y-100940476D01*
X171431904Y-100940476D01*
X171527142Y-100988095D01*
X171574761Y-101035714D01*
X171622380Y-101130952D01*
X171622380Y-101369047D01*
X171574761Y-101464285D01*
X171527142Y-101511904D01*
X159238095Y-70622380D02*
X159238095Y-71431904D01*
X159285714Y-71527142D01*
X159333333Y-71574761D01*
X159428571Y-71622380D01*
X159619047Y-71622380D01*
X159714285Y-71574761D01*
X159761904Y-71527142D01*
X159809523Y-71431904D01*
X159809523Y-70622380D01*
X160714285Y-70955714D02*
X160714285Y-71622380D01*
X160476190Y-70574761D02*
X160238095Y-71289047D01*
X160857142Y-71289047D01*
X103548095Y-76622380D02*
X103548095Y-77431904D01*
X103595714Y-77527142D01*
X103643333Y-77574761D01*
X103738571Y-77622380D01*
X103929047Y-77622380D01*
X104024285Y-77574761D01*
X104071904Y-77527142D01*
X104119523Y-77431904D01*
X104119523Y-76622380D01*
X104500476Y-76622380D02*
X105119523Y-76622380D01*
X104786190Y-77003333D01*
X104929047Y-77003333D01*
X105024285Y-77050952D01*
X105071904Y-77098571D01*
X105119523Y-77193809D01*
X105119523Y-77431904D01*
X105071904Y-77527142D01*
X105024285Y-77574761D01*
X104929047Y-77622380D01*
X104643333Y-77622380D01*
X104548095Y-77574761D01*
X104500476Y-77527142D01*
X145238095Y-70452380D02*
X145238095Y-71261904D01*
X145285714Y-71357142D01*
X145333333Y-71404761D01*
X145428571Y-71452380D01*
X145619047Y-71452380D01*
X145714285Y-71404761D01*
X145761904Y-71357142D01*
X145809523Y-71261904D01*
X145809523Y-70452380D01*
X146238095Y-70547619D02*
X146285714Y-70500000D01*
X146380952Y-70452380D01*
X146619047Y-70452380D01*
X146714285Y-70500000D01*
X146761904Y-70547619D01*
X146809523Y-70642857D01*
X146809523Y-70738095D01*
X146761904Y-70880952D01*
X146190476Y-71452380D01*
X146809523Y-71452380D01*
X171988095Y-70622380D02*
X171988095Y-71431904D01*
X172035714Y-71527142D01*
X172083333Y-71574761D01*
X172178571Y-71622380D01*
X172369047Y-71622380D01*
X172464285Y-71574761D01*
X172511904Y-71527142D01*
X172559523Y-71431904D01*
X172559523Y-70622380D01*
X173559523Y-71622380D02*
X172988095Y-71622380D01*
X173273809Y-71622380D02*
X173273809Y-70622380D01*
X173178571Y-70765238D01*
X173083333Y-70860476D01*
X172988095Y-70908095D01*
X127583333Y-124952380D02*
X127250000Y-124476190D01*
X127011904Y-124952380D02*
X127011904Y-123952380D01*
X127392857Y-123952380D01*
X127488095Y-124000000D01*
X127535714Y-124047619D01*
X127583333Y-124142857D01*
X127583333Y-124285714D01*
X127535714Y-124380952D01*
X127488095Y-124428571D01*
X127392857Y-124476190D01*
X127011904Y-124476190D01*
X128440476Y-124285714D02*
X128440476Y-124952380D01*
X128202380Y-123904761D02*
X127964285Y-124619047D01*
X128583333Y-124619047D01*
X127583333Y-121202380D02*
X127250000Y-120726190D01*
X127011904Y-121202380D02*
X127011904Y-120202380D01*
X127392857Y-120202380D01*
X127488095Y-120250000D01*
X127535714Y-120297619D01*
X127583333Y-120392857D01*
X127583333Y-120535714D01*
X127535714Y-120630952D01*
X127488095Y-120678571D01*
X127392857Y-120726190D01*
X127011904Y-120726190D01*
X127916666Y-120202380D02*
X128535714Y-120202380D01*
X128202380Y-120583333D01*
X128345238Y-120583333D01*
X128440476Y-120630952D01*
X128488095Y-120678571D01*
X128535714Y-120773809D01*
X128535714Y-121011904D01*
X128488095Y-121107142D01*
X128440476Y-121154761D01*
X128345238Y-121202380D01*
X128059523Y-121202380D01*
X127964285Y-121154761D01*
X127916666Y-121107142D01*
X127583333Y-117452380D02*
X127250000Y-116976190D01*
X127011904Y-117452380D02*
X127011904Y-116452380D01*
X127392857Y-116452380D01*
X127488095Y-116500000D01*
X127535714Y-116547619D01*
X127583333Y-116642857D01*
X127583333Y-116785714D01*
X127535714Y-116880952D01*
X127488095Y-116928571D01*
X127392857Y-116976190D01*
X127011904Y-116976190D01*
X127964285Y-116547619D02*
X128011904Y-116500000D01*
X128107142Y-116452380D01*
X128345238Y-116452380D01*
X128440476Y-116500000D01*
X128488095Y-116547619D01*
X128535714Y-116642857D01*
X128535714Y-116738095D01*
X128488095Y-116880952D01*
X127916666Y-117452380D01*
X128535714Y-117452380D01*
X127583333Y-113452380D02*
X127250000Y-112976190D01*
X127011904Y-113452380D02*
X127011904Y-112452380D01*
X127392857Y-112452380D01*
X127488095Y-112500000D01*
X127535714Y-112547619D01*
X127583333Y-112642857D01*
X127583333Y-112785714D01*
X127535714Y-112880952D01*
X127488095Y-112928571D01*
X127392857Y-112976190D01*
X127011904Y-112976190D01*
X128535714Y-113452380D02*
X127964285Y-113452380D01*
X128250000Y-113452380D02*
X128250000Y-112452380D01*
X128154761Y-112595238D01*
X128059523Y-112690476D01*
X127964285Y-112738095D01*
X112682380Y-61178333D02*
X113396666Y-61178333D01*
X113539523Y-61225952D01*
X113634761Y-61321190D01*
X113682380Y-61464047D01*
X113682380Y-61559285D01*
X113682380Y-60178333D02*
X113682380Y-60749761D01*
X113682380Y-60464047D02*
X112682380Y-60464047D01*
X112825238Y-60559285D01*
X112920476Y-60654523D01*
X112968095Y-60749761D01*
X100281904Y-103742380D02*
X100281904Y-102742380D01*
X100520000Y-102742380D01*
X100662857Y-102790000D01*
X100758095Y-102885238D01*
X100805714Y-102980476D01*
X100853333Y-103170952D01*
X100853333Y-103313809D01*
X100805714Y-103504285D01*
X100758095Y-103599523D01*
X100662857Y-103694761D01*
X100520000Y-103742380D01*
X100281904Y-103742380D01*
X101710476Y-103075714D02*
X101710476Y-103742380D01*
X101472380Y-102694761D02*
X101234285Y-103409047D01*
X101853333Y-103409047D01*
X100281904Y-112742380D02*
X100281904Y-111742380D01*
X100520000Y-111742380D01*
X100662857Y-111790000D01*
X100758095Y-111885238D01*
X100805714Y-111980476D01*
X100853333Y-112170952D01*
X100853333Y-112313809D01*
X100805714Y-112504285D01*
X100758095Y-112599523D01*
X100662857Y-112694761D01*
X100520000Y-112742380D01*
X100281904Y-112742380D01*
X101186666Y-111742380D02*
X101805714Y-111742380D01*
X101472380Y-112123333D01*
X101615238Y-112123333D01*
X101710476Y-112170952D01*
X101758095Y-112218571D01*
X101805714Y-112313809D01*
X101805714Y-112551904D01*
X101758095Y-112647142D01*
X101710476Y-112694761D01*
X101615238Y-112742380D01*
X101329523Y-112742380D01*
X101234285Y-112694761D01*
X101186666Y-112647142D01*
X108281904Y-112742380D02*
X108281904Y-111742380D01*
X108520000Y-111742380D01*
X108662857Y-111790000D01*
X108758095Y-111885238D01*
X108805714Y-111980476D01*
X108853333Y-112170952D01*
X108853333Y-112313809D01*
X108805714Y-112504285D01*
X108758095Y-112599523D01*
X108662857Y-112694761D01*
X108520000Y-112742380D01*
X108281904Y-112742380D01*
X109234285Y-111837619D02*
X109281904Y-111790000D01*
X109377142Y-111742380D01*
X109615238Y-111742380D01*
X109710476Y-111790000D01*
X109758095Y-111837619D01*
X109805714Y-111932857D01*
X109805714Y-112028095D01*
X109758095Y-112170952D01*
X109186666Y-112742380D01*
X109805714Y-112742380D01*
X108281904Y-103742380D02*
X108281904Y-102742380D01*
X108520000Y-102742380D01*
X108662857Y-102790000D01*
X108758095Y-102885238D01*
X108805714Y-102980476D01*
X108853333Y-103170952D01*
X108853333Y-103313809D01*
X108805714Y-103504285D01*
X108758095Y-103599523D01*
X108662857Y-103694761D01*
X108520000Y-103742380D01*
X108281904Y-103742380D01*
X109805714Y-103742380D02*
X109234285Y-103742380D01*
X109520000Y-103742380D02*
X109520000Y-102742380D01*
X109424761Y-102885238D01*
X109329523Y-102980476D01*
X109234285Y-103028095D01*
X190607142Y-69057142D02*
X190559523Y-69104761D01*
X190416666Y-69152380D01*
X190321428Y-69152380D01*
X190178571Y-69104761D01*
X190083333Y-69009523D01*
X190035714Y-68914285D01*
X189988095Y-68723809D01*
X189988095Y-68580952D01*
X190035714Y-68390476D01*
X190083333Y-68295238D01*
X190178571Y-68200000D01*
X190321428Y-68152380D01*
X190416666Y-68152380D01*
X190559523Y-68200000D01*
X190607142Y-68247619D01*
X191559523Y-69152380D02*
X190988095Y-69152380D01*
X191273809Y-69152380D02*
X191273809Y-68152380D01*
X191178571Y-68295238D01*
X191083333Y-68390476D01*
X190988095Y-68438095D01*
X192178571Y-68152380D02*
X192273809Y-68152380D01*
X192369047Y-68200000D01*
X192416666Y-68247619D01*
X192464285Y-68342857D01*
X192511904Y-68533333D01*
X192511904Y-68771428D01*
X192464285Y-68961904D01*
X192416666Y-69057142D01*
X192369047Y-69104761D01*
X192273809Y-69152380D01*
X192178571Y-69152380D01*
X192083333Y-69104761D01*
X192035714Y-69057142D01*
X191988095Y-68961904D01*
X191940476Y-68771428D01*
X191940476Y-68533333D01*
X191988095Y-68342857D01*
X192035714Y-68247619D01*
X192083333Y-68200000D01*
X192178571Y-68152380D01*
X105583333Y-73857142D02*
X105535714Y-73904761D01*
X105392857Y-73952380D01*
X105297619Y-73952380D01*
X105154761Y-73904761D01*
X105059523Y-73809523D01*
X105011904Y-73714285D01*
X104964285Y-73523809D01*
X104964285Y-73380952D01*
X105011904Y-73190476D01*
X105059523Y-73095238D01*
X105154761Y-73000000D01*
X105297619Y-72952380D01*
X105392857Y-72952380D01*
X105535714Y-73000000D01*
X105583333Y-73047619D01*
X106059523Y-73952380D02*
X106250000Y-73952380D01*
X106345238Y-73904761D01*
X106392857Y-73857142D01*
X106488095Y-73714285D01*
X106535714Y-73523809D01*
X106535714Y-73142857D01*
X106488095Y-73047619D01*
X106440476Y-73000000D01*
X106345238Y-72952380D01*
X106154761Y-72952380D01*
X106059523Y-73000000D01*
X106011904Y-73047619D01*
X105964285Y-73142857D01*
X105964285Y-73380952D01*
X106011904Y-73476190D01*
X106059523Y-73523809D01*
X106154761Y-73571428D01*
X106345238Y-73571428D01*
X106440476Y-73523809D01*
X106488095Y-73476190D01*
X106535714Y-73380952D01*
X178583333Y-69057142D02*
X178535714Y-69104761D01*
X178392857Y-69152380D01*
X178297619Y-69152380D01*
X178154761Y-69104761D01*
X178059523Y-69009523D01*
X178011904Y-68914285D01*
X177964285Y-68723809D01*
X177964285Y-68580952D01*
X178011904Y-68390476D01*
X178059523Y-68295238D01*
X178154761Y-68200000D01*
X178297619Y-68152380D01*
X178392857Y-68152380D01*
X178535714Y-68200000D01*
X178583333Y-68247619D01*
X179154761Y-68580952D02*
X179059523Y-68533333D01*
X179011904Y-68485714D01*
X178964285Y-68390476D01*
X178964285Y-68342857D01*
X179011904Y-68247619D01*
X179059523Y-68200000D01*
X179154761Y-68152380D01*
X179345238Y-68152380D01*
X179440476Y-68200000D01*
X179488095Y-68247619D01*
X179535714Y-68342857D01*
X179535714Y-68390476D01*
X179488095Y-68485714D01*
X179440476Y-68533333D01*
X179345238Y-68580952D01*
X179154761Y-68580952D01*
X179059523Y-68628571D01*
X179011904Y-68676190D01*
X178964285Y-68771428D01*
X178964285Y-68961904D01*
X179011904Y-69057142D01*
X179059523Y-69104761D01*
X179154761Y-69152380D01*
X179345238Y-69152380D01*
X179440476Y-69104761D01*
X179488095Y-69057142D01*
X179535714Y-68961904D01*
X179535714Y-68771428D01*
X179488095Y-68676190D01*
X179440476Y-68628571D01*
X179345238Y-68580952D01*
X140807142Y-110666666D02*
X140854761Y-110714285D01*
X140902380Y-110857142D01*
X140902380Y-110952380D01*
X140854761Y-111095238D01*
X140759523Y-111190476D01*
X140664285Y-111238095D01*
X140473809Y-111285714D01*
X140330952Y-111285714D01*
X140140476Y-111238095D01*
X140045238Y-111190476D01*
X139950000Y-111095238D01*
X139902380Y-110952380D01*
X139902380Y-110857142D01*
X139950000Y-110714285D01*
X139997619Y-110666666D01*
X139902380Y-110333333D02*
X139902380Y-109666666D01*
X140902380Y-110095238D01*
X110557142Y-73916666D02*
X110604761Y-73964285D01*
X110652380Y-74107142D01*
X110652380Y-74202380D01*
X110604761Y-74345238D01*
X110509523Y-74440476D01*
X110414285Y-74488095D01*
X110223809Y-74535714D01*
X110080952Y-74535714D01*
X109890476Y-74488095D01*
X109795238Y-74440476D01*
X109700000Y-74345238D01*
X109652380Y-74202380D01*
X109652380Y-74107142D01*
X109700000Y-73964285D01*
X109747619Y-73916666D01*
X109652380Y-73059523D02*
X109652380Y-73250000D01*
X109700000Y-73345238D01*
X109747619Y-73392857D01*
X109890476Y-73488095D01*
X110080952Y-73535714D01*
X110461904Y-73535714D01*
X110557142Y-73488095D01*
X110604761Y-73440476D01*
X110652380Y-73345238D01*
X110652380Y-73154761D01*
X110604761Y-73059523D01*
X110557142Y-73011904D01*
X110461904Y-72964285D01*
X110223809Y-72964285D01*
X110128571Y-73011904D01*
X110080952Y-73059523D01*
X110033333Y-73154761D01*
X110033333Y-73345238D01*
X110080952Y-73440476D01*
X110128571Y-73488095D01*
X110223809Y-73535714D01*
X110807142Y-100916666D02*
X110854761Y-100964285D01*
X110902380Y-101107142D01*
X110902380Y-101202380D01*
X110854761Y-101345238D01*
X110759523Y-101440476D01*
X110664285Y-101488095D01*
X110473809Y-101535714D01*
X110330952Y-101535714D01*
X110140476Y-101488095D01*
X110045238Y-101440476D01*
X109950000Y-101345238D01*
X109902380Y-101202380D01*
X109902380Y-101107142D01*
X109950000Y-100964285D01*
X109997619Y-100916666D01*
X109902380Y-100011904D02*
X109902380Y-100488095D01*
X110378571Y-100535714D01*
X110330952Y-100488095D01*
X110283333Y-100392857D01*
X110283333Y-100154761D01*
X110330952Y-100059523D01*
X110378571Y-100011904D01*
X110473809Y-99964285D01*
X110711904Y-99964285D01*
X110807142Y-100011904D01*
X110854761Y-100059523D01*
X110902380Y-100154761D01*
X110902380Y-100392857D01*
X110854761Y-100488095D01*
X110807142Y-100535714D01*
X110807142Y-87416666D02*
X110854761Y-87464285D01*
X110902380Y-87607142D01*
X110902380Y-87702380D01*
X110854761Y-87845238D01*
X110759523Y-87940476D01*
X110664285Y-87988095D01*
X110473809Y-88035714D01*
X110330952Y-88035714D01*
X110140476Y-87988095D01*
X110045238Y-87940476D01*
X109950000Y-87845238D01*
X109902380Y-87702380D01*
X109902380Y-87607142D01*
X109950000Y-87464285D01*
X109997619Y-87416666D01*
X110235714Y-86559523D02*
X110902380Y-86559523D01*
X109854761Y-86797619D02*
X110569047Y-87035714D01*
X110569047Y-86416666D01*
X169057142Y-96416666D02*
X169104761Y-96464285D01*
X169152380Y-96607142D01*
X169152380Y-96702380D01*
X169104761Y-96845238D01*
X169009523Y-96940476D01*
X168914285Y-96988095D01*
X168723809Y-97035714D01*
X168580952Y-97035714D01*
X168390476Y-96988095D01*
X168295238Y-96940476D01*
X168200000Y-96845238D01*
X168152380Y-96702380D01*
X168152380Y-96607142D01*
X168200000Y-96464285D01*
X168247619Y-96416666D01*
X168152380Y-96083333D02*
X168152380Y-95464285D01*
X168533333Y-95797619D01*
X168533333Y-95654761D01*
X168580952Y-95559523D01*
X168628571Y-95511904D01*
X168723809Y-95464285D01*
X168961904Y-95464285D01*
X169057142Y-95511904D01*
X169104761Y-95559523D01*
X169152380Y-95654761D01*
X169152380Y-95940476D01*
X169104761Y-96035714D01*
X169057142Y-96083333D01*
X165583333Y-69057142D02*
X165535714Y-69104761D01*
X165392857Y-69152380D01*
X165297619Y-69152380D01*
X165154761Y-69104761D01*
X165059523Y-69009523D01*
X165011904Y-68914285D01*
X164964285Y-68723809D01*
X164964285Y-68580952D01*
X165011904Y-68390476D01*
X165059523Y-68295238D01*
X165154761Y-68200000D01*
X165297619Y-68152380D01*
X165392857Y-68152380D01*
X165535714Y-68200000D01*
X165583333Y-68247619D01*
X165964285Y-68247619D02*
X166011904Y-68200000D01*
X166107142Y-68152380D01*
X166345238Y-68152380D01*
X166440476Y-68200000D01*
X166488095Y-68247619D01*
X166535714Y-68342857D01*
X166535714Y-68438095D01*
X166488095Y-68580952D01*
X165916666Y-69152380D01*
X166535714Y-69152380D01*
X152083333Y-69307142D02*
X152035714Y-69354761D01*
X151892857Y-69402380D01*
X151797619Y-69402380D01*
X151654761Y-69354761D01*
X151559523Y-69259523D01*
X151511904Y-69164285D01*
X151464285Y-68973809D01*
X151464285Y-68830952D01*
X151511904Y-68640476D01*
X151559523Y-68545238D01*
X151654761Y-68450000D01*
X151797619Y-68402380D01*
X151892857Y-68402380D01*
X152035714Y-68450000D01*
X152083333Y-68497619D01*
X153035714Y-69402380D02*
X152464285Y-69402380D01*
X152750000Y-69402380D02*
X152750000Y-68402380D01*
X152654761Y-68545238D01*
X152559523Y-68640476D01*
X152464285Y-68688095D01*
M02*
