M48
; DRILL file {KiCad (5.1.4-0-10_14)} date 2021 February 18, Thursday 19:38:53
; FORMAT={-:-/ absolute / inch / decimal}
; #@! TF.CreationDate,2021-02-18T19:38:53+09:00
; #@! TF.GenerationSoftware,Kicad,Pcbnew,(5.1.4-0-10_14)
FMAT,2
INCH
T1C0.0157
T2C0.0315
T3C0.0354
T4C0.0394
T5C0.1260
%
G90
G05
T1
X4.6194Y-3.6236
X4.9218Y-3.5541
X5.0472Y-3.4622
X5.1916Y-3.6065
X5.2953Y-4.6457
X5.3384Y-3.4567
X5.4257Y-3.531
X5.4544Y-3.5024
X5.5227Y-4.1486
X5.5712Y-4.0271
X5.6176Y-4.0558
X5.6832Y-3.2458
X5.6896Y-4.1788
X5.7726Y-2.8326
X5.8544Y-3.859
X6.0766Y-3.859
X6.0855Y-3.3877
X6.1516Y-3.1477
X6.1927Y-2.682
X6.4635Y-3.7936
X7.0783Y-4.0238
T2
X6.2598Y-2.8937
X6.2598Y-2.9937
X6.2598Y-3.0937
X6.2598Y-3.1937
X6.2598Y-3.2937
X6.2598Y-3.3937
X6.2598Y-3.4937
X6.2598Y-3.5937
X6.5598Y-2.8937
X6.5598Y-2.9937
X6.5598Y-3.1937
X6.5598Y-3.2937
X6.5598Y-3.3937
X6.5598Y-3.4937
X6.5598Y-3.5937
X6.8307Y-3.7551
X6.8307Y-4.0551
X6.9307Y-3.7551
X6.9307Y-4.0551
X7.0307Y-3.7551
X7.0307Y-4.0551
X7.1307Y-3.7551
X7.1307Y-4.0551
X7.2307Y-3.7551
X7.2307Y-4.0551
X7.3307Y-3.7551
X7.3307Y-4.0551
X7.4307Y-3.7551
X7.4307Y-4.0551
X7.5307Y-3.7551
X7.5307Y-4.0551
X5.7283Y-4.2819
X5.7283Y-4.8819
X5.8283Y-4.2819
X5.8283Y-4.8819
X5.9283Y-4.2819
X5.9283Y-4.8819
X6.0283Y-4.2819
X6.0283Y-4.8819
X6.1283Y-4.2819
X6.1283Y-4.8819
X6.2283Y-4.2819
X6.2283Y-4.8819
X6.3283Y-4.2819
X6.3283Y-4.8819
X6.4283Y-4.2819
X6.4283Y-4.8819
X6.5283Y-4.2819
X6.5283Y-4.8819
X6.6283Y-4.2819
X6.6283Y-4.8819
X6.7283Y-4.2819
X6.7283Y-4.8819
X6.8283Y-4.2819
X6.8283Y-4.8819
X6.9283Y-4.2819
X6.9283Y-4.8819
X7.0283Y-4.2819
X7.0283Y-4.8819
X7.1283Y-4.2819
X7.1283Y-4.8819
X7.2283Y-4.2819
X7.2283Y-4.8819
X4.4291Y-3.9173
X4.4291Y-4.0157
X4.8472Y-4.2323
X5.7283Y-2.8937
X5.7283Y-2.9937
X5.7283Y-3.0937
X5.7283Y-3.1937
X5.7283Y-3.2937
X5.7283Y-3.3937
X5.7283Y-3.4937
X5.7283Y-3.5937
X6.0283Y-2.8937
X6.0283Y-2.9937
X6.0283Y-3.0937
X6.0283Y-3.1937
X6.0283Y-3.2937
X6.0283Y-3.3937
X6.0283Y-3.4937
X6.0283Y-3.5937
X4.5472Y-3.9323
X4.5472Y-4.2323
X4.6472Y-3.9323
X4.6472Y-4.2323
X4.7472Y-3.9323
X4.7472Y-4.2323
X4.8472Y-3.9323
X4.9472Y-3.9323
X4.9472Y-4.2323
X5.0472Y-3.9323
X5.0472Y-4.2323
X5.1472Y-3.9323
X5.1472Y-4.2323
X5.2472Y-3.9323
X4.5472Y-3.4008
X4.5472Y-3.7008
X4.6472Y-3.4008
X4.6472Y-3.7008
X4.7472Y-3.4008
X4.7472Y-3.7008
X4.8472Y-3.4008
X4.8472Y-3.7008
X4.9472Y-3.4008
X4.9472Y-3.7008
X5.0472Y-3.4008
X5.0472Y-3.7008
X5.1472Y-3.4008
X5.1472Y-3.7008
X5.2472Y-3.4008
X5.2472Y-3.7008
X5.3472Y-3.4008
X5.3472Y-3.7008
X5.4472Y-3.4008
X5.4472Y-3.7008
X4.5472Y-2.8693
X4.5472Y-3.1693
X4.6472Y-2.8693
X4.6472Y-3.1693
X4.7472Y-2.8693
X4.7472Y-3.1693
X4.8472Y-2.8693
X4.8472Y-3.1693
X4.9472Y-2.8693
X4.9472Y-3.1693
X5.0472Y-2.8693
X5.0472Y-3.1693
X5.1472Y-2.8693
X5.1472Y-3.1693
X3.9567Y-3.1299
X3.9567Y-3.2299
X3.9567Y-3.3299
X5.4472Y-2.8693
X5.2472Y-2.8693
X5.2472Y-3.1693
X5.3472Y-2.8693
X5.3472Y-4.2323
X3.9567Y-3.4299
X3.9567Y-3.5299
X3.9567Y-3.6299
X3.9567Y-3.7299
X3.9567Y-3.8299
X4.2567Y-3.1299
X4.2567Y-3.2299
X4.2567Y-3.3299
X4.2567Y-3.4299
X4.2567Y-3.5299
X4.2567Y-3.6299
X5.3472Y-3.1693
X4.2567Y-3.7299
X5.4472Y-3.1693
X4.2567Y-3.8299
X5.2472Y-4.2323
X6.7224Y-3.7402
X4.5311Y-4.9114
X4.9311Y-4.9114
X4.4291Y-3.3858
X4.4291Y-3.4843
X5.3472Y-3.9323
X5.4472Y-3.9323
X5.4472Y-4.2323
X6.7224Y-3.8386
X6.4764Y-2.7854
X6.5748Y-2.7854
X5.9449Y-2.7953
X7.2638Y-2.8937
X7.2638Y-2.9937
X7.5638Y-3.3937
X7.5638Y-3.4937
X6.0433Y-2.7953
X7.2638Y-3.1937
X7.2638Y-3.2937
X7.2638Y-3.3937
X7.2638Y-3.4937
X7.5638Y-2.8937
X7.5638Y-2.9937
X7.5638Y-3.0937
X7.5638Y-3.1937
X4.9311Y-4.4488
X7.2638Y-3.0937
X7.5638Y-3.2937
X4.5311Y-4.6063
X4.9311Y-4.6063
X7.4803Y-2.7854
X7.5787Y-2.7854
X4.1142Y-2.7461
X4.2126Y-2.7461
X4.5311Y-4.7638
X4.9311Y-4.7638
X4.5311Y-4.4488
X6.7717Y-2.8937
X6.9882Y-2.7854
X7.0866Y-2.7854
X5.6102Y-4.3012
X5.6102Y-4.3996
X6.7717Y-3.1937
X6.7717Y-3.2937
X6.7717Y-3.3937
X6.7717Y-3.4937
X7.0717Y-2.8937
X7.0717Y-2.9937
X7.0717Y-3.0937
X7.0717Y-3.1937
X7.0717Y-3.2937
X4.4193Y-2.8543
X4.4193Y-2.9528
X6.5598Y-3.0937
X6.7717Y-2.9937
X6.7717Y-3.0937
X7.0717Y-3.3937
X7.0717Y-3.4937
T3
X3.9272Y-4.5374
X4.0272Y-4.5374
X3.9272Y-4.1831
X4.0272Y-4.1831
X4.2421Y-4.5374
X4.3421Y-4.5374
X4.2421Y-4.1831
X4.3421Y-4.1831
T4
X4.5472Y-2.5181
X4.5472Y-2.6181
X4.6472Y-2.5181
X4.6472Y-2.6181
X4.7472Y-2.5181
X4.7472Y-2.6181
X4.8472Y-2.5181
X4.8472Y-2.6181
X4.9472Y-2.5181
X4.9472Y-2.6181
X5.0472Y-2.5181
X5.0472Y-2.6181
X5.1472Y-2.5181
X5.1472Y-2.6181
X5.2472Y-2.5181
X5.2472Y-2.6181
X5.3472Y-2.5181
X5.3472Y-2.6181
X5.4472Y-2.5181
X5.4472Y-2.6181
X5.5472Y-2.5181
X5.5472Y-2.6181
X5.6472Y-2.5181
X5.6472Y-2.6181
X5.7472Y-2.5181
X5.7472Y-2.6181
X5.8472Y-2.5181
X5.8472Y-2.6181
X5.9472Y-2.5181
X5.9472Y-2.6181
X6.0472Y-2.5181
X6.0472Y-2.6181
X6.1472Y-2.5181
X6.1472Y-2.6181
X6.2472Y-2.5181
X6.2472Y-2.6181
X6.3472Y-2.5181
X6.3472Y-2.6181
X6.4472Y-2.5181
X6.4472Y-2.6181
X6.5472Y-2.5181
X6.5472Y-2.6181
X6.6472Y-2.5181
X6.6472Y-2.6181
X6.7472Y-2.5181
X6.7472Y-2.6181
X6.8472Y-2.5181
X6.8472Y-2.6181
X6.9472Y-2.5181
X6.9472Y-2.6181
T5
X7.5Y-2.3031
X3.9961Y-2.3031
X7.5Y-4.9016
X3.9961Y-4.9016
T0
M30
