M48
; DRILL file {KiCad (5.1.4-0-10_14)} date 2021 March 12, Friday 18:17:00
; FORMAT={-:-/ absolute / metric / decimal}
; #@! TF.CreationDate,2021-03-12T18:17:00+09:00
; #@! TF.GenerationSoftware,Kicad,Pcbnew,(5.1.4-0-10_14)
FMAT,2
METRIC
T1C0.400
T2C0.800
T3C0.900
T4C1.000
T5C3.200
%
G90
G05
T1
X102.563Y-78.563
X117.333Y-92.039
X125.013Y-90.274
X128.2Y-87.939
X131.865Y-91.604
X134.5Y-118.0
X135.596Y-87.8
X137.812Y-89.686
X138.541Y-88.962
X140.276Y-105.375
X141.507Y-102.287
X142.686Y-103.017
X144.354Y-82.442
X144.515Y-106.142
X146.625Y-71.948
X148.702Y-98.018
X154.347Y-98.018
X154.572Y-86.047
X156.249Y-79.951
X157.295Y-68.123
X164.172Y-96.358
X179.79Y-102.204
T2
X115.5Y-99.88
X115.5Y-107.5
X118.04Y-99.88
X118.04Y-107.5
X120.58Y-99.88
X120.58Y-107.5
X123.12Y-99.88
X123.12Y-107.5
X125.25Y-113.0
X115.09Y-113.0
X125.66Y-99.88
X125.66Y-107.5
X128.2Y-99.88
X128.2Y-107.5
X130.74Y-99.88
X130.74Y-107.5
X133.28Y-99.88
X133.28Y-107.5
X135.82Y-99.88
X135.82Y-107.5
X138.36Y-99.88
X138.36Y-107.5
X145.5Y-73.5
X145.5Y-76.04
X145.5Y-78.58
X145.5Y-81.12
X145.5Y-83.66
X145.5Y-86.2
X145.5Y-88.74
X145.5Y-91.28
X153.12Y-73.5
X153.12Y-76.04
X153.12Y-78.58
X123.12Y-86.38
X115.5Y-86.38
X118.04Y-86.38
X120.58Y-86.38
X123.12Y-94.0
X130.74Y-86.38
X130.74Y-94.0
X133.28Y-94.0
X135.82Y-94.0
X138.36Y-94.0
X153.12Y-81.12
X120.58Y-94.0
X133.28Y-86.38
X153.12Y-83.66
X153.12Y-86.2
X153.12Y-88.74
X153.12Y-91.28
X115.5Y-94.0
X118.04Y-94.0
X125.66Y-86.38
X125.66Y-94.0
X128.2Y-86.38
X128.2Y-94.0
X135.82Y-86.38
X138.36Y-86.38
X100.5Y-79.5
X100.5Y-82.04
X100.5Y-84.58
X100.5Y-87.12
X100.5Y-89.66
X100.5Y-92.2
X112.5Y-99.5
X112.5Y-102.0
X125.25Y-124.75
X112.5Y-86.0
X112.5Y-88.5
X100.5Y-94.74
X100.5Y-97.28
X108.12Y-79.5
X108.12Y-82.04
X108.12Y-84.58
X125.25Y-117.0
X108.12Y-87.12
X108.12Y-89.66
X108.12Y-92.2
X108.12Y-94.74
X108.12Y-97.28
X115.09Y-124.75
X115.09Y-117.0
X170.75Y-95.0
X170.75Y-97.5
X173.5Y-95.38
X173.5Y-103.0
X176.04Y-103.0
X178.58Y-103.0
X183.66Y-95.38
X186.2Y-95.38
X188.74Y-95.38
X191.28Y-95.38
X164.5Y-70.75
X167.0Y-70.75
X176.04Y-95.38
X178.58Y-95.38
X181.12Y-95.38
X181.12Y-103.0
X183.66Y-103.0
X186.2Y-103.0
X188.74Y-103.0
X191.28Y-103.0
X151.0Y-71.0
X153.5Y-71.0
X184.5Y-73.5
X184.5Y-76.04
X184.5Y-78.58
X184.5Y-81.12
X184.5Y-83.66
X184.5Y-86.2
X184.5Y-88.74
X192.12Y-73.5
X192.12Y-76.04
X192.12Y-78.58
X192.12Y-81.12
X192.12Y-86.2
X192.12Y-88.74
X190.0Y-70.75
X192.5Y-70.75
X192.12Y-83.66
X159.0Y-73.5
X159.0Y-76.04
X159.0Y-78.58
X159.0Y-81.12
X159.0Y-83.66
X159.0Y-86.2
X159.0Y-88.74
X159.0Y-91.28
X166.62Y-73.5
X166.62Y-76.04
X166.62Y-78.58
X166.62Y-81.12
X166.62Y-83.66
X166.62Y-86.2
X166.62Y-88.74
X166.62Y-91.28
X115.5Y-72.88
X115.5Y-80.5
X118.04Y-72.88
X118.04Y-80.5
X120.58Y-72.88
X120.58Y-80.5
X123.12Y-72.88
X123.12Y-80.5
X125.66Y-72.88
X125.66Y-80.5
X128.2Y-72.88
X128.2Y-80.5
X130.74Y-72.88
X130.74Y-80.5
X133.28Y-80.5
X135.82Y-80.5
X138.36Y-80.5
X104.5Y-69.75
X107.0Y-69.75
X133.28Y-72.88
X135.82Y-72.88
X138.36Y-72.88
X177.5Y-70.75
X180.0Y-70.75
X115.09Y-121.0
X125.25Y-121.0
X142.5Y-109.25
X170.9Y-108.76
X145.5Y-108.76
X145.5Y-124.0
X148.04Y-108.76
X148.04Y-124.0
X150.58Y-108.76
X150.58Y-124.0
X153.12Y-108.76
X153.12Y-124.0
X155.66Y-108.76
X155.66Y-124.0
X158.2Y-108.76
X158.2Y-124.0
X160.74Y-108.76
X172.0Y-83.66
X160.74Y-124.0
X163.28Y-108.76
X163.28Y-124.0
X165.82Y-108.76
X165.82Y-124.0
X168.36Y-108.76
X179.62Y-88.74
X168.36Y-124.0
X170.9Y-124.0
X173.44Y-108.76
X173.44Y-124.0
X175.98Y-108.76
X175.98Y-124.0
X178.52Y-108.76
X178.52Y-124.0
X181.06Y-108.76
X179.62Y-73.5
X172.0Y-88.74
X183.6Y-124.0
X172.0Y-76.04
X181.06Y-124.0
X142.5Y-111.75
X172.0Y-86.2
X179.62Y-76.04
X179.62Y-86.2
X112.25Y-72.5
X112.25Y-75.0
X172.0Y-78.58
X183.6Y-108.76
X172.0Y-73.5
X172.0Y-81.12
X179.62Y-78.58
X179.62Y-81.12
X179.62Y-83.66
T3
X110.29Y-106.25
X99.75Y-106.25
X102.29Y-106.25
X99.75Y-115.25
X102.29Y-115.25
X107.75Y-115.25
X110.29Y-115.25
X107.75Y-106.25
T4
X115.5Y-63.96
X115.5Y-66.5
X118.04Y-63.96
X118.04Y-66.5
X120.58Y-63.96
X120.58Y-66.5
X123.12Y-63.96
X123.12Y-66.5
X125.66Y-63.96
X125.66Y-66.5
X128.2Y-63.96
X128.2Y-66.5
X99.0Y-68.5
X99.0Y-71.04
X130.74Y-63.96
X130.74Y-66.5
X133.28Y-63.96
X133.28Y-66.5
X135.82Y-63.96
X135.82Y-66.5
X138.36Y-63.96
X138.36Y-66.5
X140.9Y-63.96
X140.9Y-66.5
X143.44Y-63.96
X143.44Y-66.5
X145.98Y-63.96
X145.98Y-66.5
X148.52Y-63.96
X148.52Y-66.5
X151.06Y-63.96
X151.06Y-66.5
X153.6Y-63.96
X153.6Y-66.5
X156.14Y-63.96
X156.14Y-66.5
X158.68Y-63.96
X158.68Y-66.5
X161.22Y-63.96
X161.22Y-66.5
X163.76Y-63.96
X163.76Y-66.5
X166.3Y-63.96
X166.3Y-66.5
X168.84Y-63.96
X168.84Y-66.5
X171.38Y-63.96
X171.38Y-66.5
X173.92Y-63.96
X173.92Y-66.5
X176.46Y-63.96
X176.46Y-66.5
T5
X101.5Y-124.5
X190.5Y-58.5
X101.5Y-58.5
X190.5Y-124.5
T0
M30
